<?xml version="1.0" encoding="utf-8" standalone="no"?>
<!DOCTYPE svg PUBLIC "-//W3C//DTD SVG 1.1//EN"
  "http://www.w3.org/Graphics/SVG/1.1/DTD/svg11.dtd">
<!-- Created with matplotlib (http://matplotlib.org/) -->
<svg height="432pt" version="1.1" viewBox="0 0 576 432" width="576pt" xmlns="http://www.w3.org/2000/svg" xmlns:xlink="http://www.w3.org/1999/xlink">
 <defs>
  <style type="text/css">
*{stroke-linecap:butt;stroke-linejoin:round;}
  </style>
 </defs>
 <g id="figure_1">
  <g id="patch_1">
   <path d="
M0 432
L576 432
L576 0
L0 0
z
" style="fill:none;"/>
  </g>
  <g id="axes_1">
   <g id="patch_2">
    <path d="
M51.21 386.64
L550.496 386.64
L550.496 18.81
L51.21 18.81
z
" style="fill:none;"/>
   </g>
   <g id="line2d_1">
    <path clip-path="url(#p1dc60e7a71)" d="
M67.8539 381.267
L84.5035 379.76
L101.137 377.771
L117.787 377.487
L134.421 370.972
L151.07 368.516
L167.704 355.536
L184.354 327.087
L201.003 294.432
L217.637 216.598
L234.286 153
L250.92 107.391
L267.57 121.75
L284.204 112.322
L300.853 76.8677
L317.503 74.2624
L334.136 109.377
L350.786 96.2211
L367.42 78.1097
L384.069 136.41
L400.703 105.332
L417.353 153.249
L434.002 148.465
L450.636 185.484
L467.286 175.507" style="fill:none;stroke:#4961d2;stroke-linecap:square;stroke-width:2;"/>
   </g>
   <g id="line2d_2">
    <path clip-path="url(#p1dc60e7a71)" d="
M67.8539 381.601
L84.5035 380.403
L101.137 377.329
L117.787 377.081
L134.421 371.902
L151.07 365.534
L167.704 355.359
L184.354 334.65
L201.003 283.446
L217.637 211.665
L234.286 146.634
L250.92 101.906
L267.57 90.6233
L284.204 90.3037
L300.853 51.3232
L317.503 58.9081
L334.136 73.8077
L350.786 85.6115
L367.42 71.8493
L384.069 99.8331
L400.703 102.327
L417.353 129.189
L434.002 152.12
L450.636 174.456
L467.286 173.957" style="fill:none;stroke:#6a8bef;stroke-linecap:square;stroke-width:2;"/>
   </g>
   <g id="line2d_3">
    <path clip-path="url(#p1dc60e7a71)" d="
M67.8539 382.531
L84.5035 380.9
L101.137 378.167
L117.787 379.174
L134.421 375.829
L151.07 367.917
L167.704 361.434
L184.354 334.537
L201.003 310.23
L217.637 240.694
L234.286 182.807
L250.92 141.481
L267.57 133.793
L284.204 119.873
L300.853 93.5822
L317.503 105.084
L334.136 85.4404
L350.786 91.3232
L367.42 77.2186
L384.069 107.624
L400.703 124.504
L417.353 139.948
L434.002 169.827
L450.636 184.564
L467.286 206.794" style="fill:none;stroke:#8db0fe;stroke-linecap:square;stroke-width:2;"/>
   </g>
   <g id="line2d_4">
    <path clip-path="url(#p1dc60e7a71)" d="
M67.8539 381.951
L84.5035 381.962
L101.137 378.64
L117.787 376.532
L134.421 373.843
L151.07 366.675
L167.704 356.476
L184.354 336.405
L201.003 277.594
L217.637 211.755
L234.286 168.818
L250.92 114.898
L267.57 102.17
L284.204 95.2694
L300.853 64.8942
L317.503 46.0512
L334.136 59.9834
L350.786 71.4565
L367.42 49.3185
L384.069 71.4311
L400.703 98.3351
L417.353 123.997
L434.002 155.709
L450.636 167.623
L467.286 170.706" style="fill:none;stroke:#8db0fe;stroke-linecap:square;stroke-width:2;"/>
   </g>
   <g id="line2d_5">
    <path clip-path="url(#p1dc60e7a71)" d="
M67.8539 383.045
L84.5035 380.359
L101.137 380.598
L117.787 379.137
L134.421 376.592
L151.07 369.459
L167.704 357.978
L184.354 332.274
L201.003 323.146
L217.637 253.764
L234.286 191.338
L250.92 161.57
L267.57 157.644
L284.204 133.139
L300.853 103.609
L317.503 117.779
L334.136 74.0074
L350.786 84.4794
L367.42 69.3111
L384.069 94.7503
L400.703 118.589
L417.353 131.474
L434.002 170.775
L450.636 176.766
L467.286 215.84" style="fill:none;stroke:#afcafc;stroke-linecap:square;stroke-width:2;"/>
   </g>
   <g id="line2d_6">
    <path clip-path="url(#p1dc60e7a71)" d="
M67.8539 381.618
L84.5035 381.784
L101.137 378.66
L117.787 378.269
L134.421 375.389
L151.07 368.39
L167.704 355.802
L184.354 330.068
L201.003 291.5
L217.637 232.296
L234.286 165.345
L250.92 135.231
L267.57 112.702
L284.204 101.967
L300.853 75.9474
L317.503 89.4716
L334.136 84.5055
L350.786 76.3162
L367.42 76.8447
L384.069 105.27
L400.703 117.334
L417.353 149.917
L434.002 162.505
L450.636 181.939
L467.286 198.59" style="fill:none;stroke:#afcafc;stroke-linecap:square;stroke-width:2;"/>
   </g>
   <g id="line2d_7">
    <path clip-path="url(#p1dc60e7a71)" d="
M67.8539 381.883
L84.5035 380.786
L101.137 379.238
L117.787 376.907
L134.421 373.192
L151.07 368.425
L167.704 349.995
L184.354 324.939
L201.003 276.399
L217.637 221.307
L234.286 167.118
L250.92 129.556
L267.57 120.972
L284.204 96.7843
L300.853 36.9244
L317.503 67.0461
L334.136 60.1247
L350.786 36.8307
L367.42 79.3326
L384.069 48.6592
L400.703 113.236
L417.353 140.415
L434.002 173.385
L450.636 170.932
L467.286 182.631" style="fill:none;stroke:#afcafc;stroke-linecap:square;stroke-width:2;"/>
   </g>
   <g id="line2d_8">
    <path clip-path="url(#p1dc60e7a71)" d="
M67.8539 381.597
L84.5035 379.819
L101.137 379.141
L117.787 378.038
L134.421 371.922
L151.07 365.476
L167.704 350.094
L184.354 317.192
L201.003 288.293
L217.637 250.394
L234.286 160.393
L250.92 148.303
L267.57 113.263
L284.204 97.9445
L300.853 74.3368
L317.503 107.824
L334.136 84.5957
L350.786 73.7133
L367.42 109.428
L384.069 128.46
L400.703 113.814
L417.353 166.501
L434.002 167.276
L450.636 182.418
L467.286 212.405" style="fill:none;stroke:#cfdaea;stroke-linecap:square;stroke-width:2;"/>
   </g>
   <g id="line2d_9">
    <path clip-path="url(#p1dc60e7a71)" d="
M67.8539 381.745
L84.5035 380.246
L101.137 377.64
L117.787 376.477
L134.421 373.838
L151.07 364.348
L167.704 347.936
L184.354 309.975
L201.003 268.509
L217.637 211.563
L234.286 148.023
L250.92 115.905
L267.57 114.287
L284.204 100.388
L300.853 54.2275
L317.503 78.8771
L334.136 83.7101
L350.786 82.595
L367.42 97.619
L384.069 95.9046
L400.703 123.642
L417.353 144.276
L434.002 169.401
L450.636 184.497
L467.286 191.058" style="fill:none;stroke:#cfdaea;stroke-linecap:square;stroke-width:2;"/>
   </g>
   <g id="line2d_10">
    <path clip-path="url(#p1dc60e7a71)" d="
M67.8539 382.244
L84.5035 381.46
L101.137 380.877
L117.787 374.75
L134.421 373.038
L151.07 360.457
L167.704 350.296
L184.354 312.279
L201.003 271.169
L217.637 258.564
L234.286 155.576
L250.92 118.155
L267.57 141.28
L284.204 112.2
L300.853 80.0071
L317.503 86.3545
L334.136 78.5851
L350.786 80.176
L367.42 80.8914
L384.069 69.7811
L400.703 149.146
L417.353 145.766
L434.002 180.519
L450.636 172.077
L467.286 202.015" style="fill:none;stroke:#cfdaea;stroke-linecap:square;stroke-width:2;"/>
   </g>
   <g id="line2d_11">
    <path clip-path="url(#p1dc60e7a71)" d="
M67.8539 382.617
L84.5035 381.656
L101.137 378.306
L117.787 377.221
L134.421 370.845
L151.07 362.307
L167.704 346.162
L184.354 308.241
L201.003 288.08
L217.637 266.352
L234.286 171.35
L250.92 178.704
L267.57 130.642
L284.204 111.377
L300.853 87.3785
L317.503 130.454
L334.136 93.8336
L350.786 83.7487
L367.42 125.981
L384.069 160.161
L400.703 127.785
L417.353 198.5
L434.002 168.886
L450.636 189.658
L467.286 228.637" style="fill:none;stroke:#e9d5cb;stroke-linecap:square;stroke-width:2;"/>
   </g>
   <g id="line2d_12">
    <path clip-path="url(#p1dc60e7a71)" d="
M67.8539 381.718
L84.5035 378.43
L101.137 377.541
L117.787 374.485
L134.421 371.606
L151.07 357.748
L167.704 340.25
L184.354 287.791
L201.003 245.447
L217.637 193.383
L234.286 140.055
L250.92 109.253
L267.57 88.4997
L284.204 88.2699
L300.853 79.093
L317.503 75.7641
L334.136 85.9318
L350.786 102.139
L367.42 84.3226
L384.069 134.026
L400.703 119.799
L417.353 136.869
L434.002 162.446
L450.636 178.748
L467.286 195.487" style="fill:none;stroke:#e9d5cb;stroke-linecap:square;stroke-width:2;"/>
   </g>
   <g id="line2d_13">
    <path clip-path="url(#p1dc60e7a71)" d="
M67.8539 382.128
L84.5035 378.52
L101.137 376.491
L117.787 374.666
L134.421 370.193
L151.07 358.706
L167.704 339.372
L184.354 284.265
L201.003 239.363
L217.637 230.167
L234.286 133.802
L250.92 101.151
L267.57 114.976
L284.204 103.158
L300.853 84.1051
L317.503 96.9879
L334.136 90.066
L350.786 99.5166
L367.42 99.9523
L384.069 106.045
L400.703 136.886
L417.353 146.297
L434.002 179.819
L450.636 178.296
L467.286 202.177" style="fill:none;stroke:#e9d5cb;stroke-linecap:square;stroke-width:2;"/>
   </g>
   <g id="line2d_14">
    <path clip-path="url(#p1dc60e7a71)" d="
M67.8539 381.997
L84.5035 378.715
L101.137 376.443
L117.787 372.373
L134.421 369.456
L151.07 353.35
L167.704 336.542
L184.354 276.629
L201.003 230.774
L217.637 195.792
L234.286 155.423
L250.92 135.49
L267.57 85.6549
L284.204 82.341
L300.853 105.064
L317.503 68.775
L334.136 86.4962
L350.786 134.445
L367.42 79.4058
L384.069 174.81
L400.703 125.697
L417.353 145.372
L434.002 159.696
L450.636 185.926
L467.286 196.364" style="fill:none;stroke:#f6bda2;stroke-linecap:square;stroke-width:2;"/>
   </g>
   <g id="line2d_15">
    <path clip-path="url(#p1dc60e7a71)" d="
M67.8539 381.752
L84.5035 378.845
L101.137 376.21
L117.787 372.689
L134.421 368.783
L151.07 357.434
L167.704 328.41
L184.354 264.516
L201.003 217.209
L217.637 186.051
L234.286 130.843
L250.92 107.309
L267.57 82.2339
L284.204 86.7563
L300.853 79.9032
L317.503 97.0702
L334.136 101.654
L350.786 102.316
L367.42 101.178
L384.069 121.289
L400.703 138.622
L417.353 143.71
L434.002 169.759
L450.636 181.905
L467.286 201.851" style="fill:none;stroke:#f6bda2;stroke-linecap:square;stroke-width:2;"/>
   </g>
   <g id="line2d_16">
    <path clip-path="url(#p1dc60e7a71)" d="
M67.8539 381.704
L84.5035 379.202
L101.137 376.471
L117.787 372.789
L134.421 371.226
L151.07 355.388
L167.704 330.047
L184.354 260.68
L201.003 232.646
L217.637 205.457
L234.286 111.152
L250.92 74.3745
L267.57 85.4135
L284.204 53.1407
L300.853 97.8961
L317.503 102.5
L334.136 41.4682
L350.786 93.8968
L367.42 89.7464
L384.069 97.2376
L400.703 134.404
L417.353 137.062
L434.002 149.37
L450.636 169.304
L467.286 191.549" style="fill:none;stroke:#f6bda2;stroke-linecap:square;stroke-width:2;"/>
   </g>
   <g id="line2d_17">
    <path clip-path="url(#p1dc60e7a71)" d="
M67.8539 381.635
L84.5035 379.463
L101.137 376.917
L117.787 370.225
L134.421 366.35
L151.07 351.865
L167.704 325.51
L184.354 269.411
L201.003 211.887
L217.637 146.459
L234.286 151.54
L250.92 139.507
L267.57 82.3587
L284.204 71.0795
L300.853 77.7792
L317.503 75.5484
L334.136 90.7037
L350.786 81.9308
L367.42 95.4345
L384.069 132.187
L400.703 136.743
L417.353 145.775
L434.002 162.689
L450.636 185.424
L467.286 187.575" style="fill:none;stroke:#f4987a;stroke-linecap:square;stroke-width:2;"/>
   </g>
   <g id="line2d_18">
    <path clip-path="url(#p1dc60e7a71)" d="
M67.8539 381.61
L84.5035 380.436
L101.137 375.897
L117.787 373.401
L134.421 369.877
L151.07 347.053
L167.704 332.663
L184.354 264.595
L201.003 226.508
L217.637 191.847
L234.286 117.063
L250.92 85.8365
L267.57 85.8007
L284.204 83.0841
L300.853 108.584
L317.503 120.658
L334.136 97.8505
L350.786 118.571
L367.42 98.4776
L384.069 124.908
L400.703 153.03
L417.353 156.487
L434.002 167.622
L450.636 184.823
L467.286 201.63" style="fill:none;stroke:#f4987a;stroke-linecap:square;stroke-width:2;"/>
   </g>
   <g id="line2d_19">
    <path clip-path="url(#p1dc60e7a71)" d="
M67.8539 379.642
L84.5035 378.413
L101.137 375.917
L117.787 369.366
L134.421 366.802
L151.07 354.793
L167.704 326.684
L184.354 297.848
L201.003 216.804
L217.637 114.161
L234.286 172.296
L250.92 172.36
L267.57 57.5613
L284.204 36.9546
L300.853 50.7421
L317.503 29.0987
L334.136 48.5014
L350.786 44.6505
L367.42 41.6447
L384.069 121.529
L400.703 108.371
L417.353 144.658
L434.002 151.266
L450.636 177.915
L467.286 155.547" style="fill:none;stroke:#e36c55;stroke-linecap:square;stroke-width:2;"/>
   </g>
   <g id="line2d_20">
    <path clip-path="url(#p1dc60e7a71)" d="
M67.8539 381.708
L84.5035 378.998
L101.137 378.295
L117.787 373.052
L134.421 369.712
L151.07 356.979
L167.704 336.45
L184.354 293.437
L201.003 233.309
L217.637 178.335
L234.286 134.908
L250.92 114.926
L267.57 106.929
L284.204 104.074
L300.853 90.0569
L317.503 104.753
L334.136 114.881
L350.786 119.41
L367.42 120.5
L384.069 129.742
L400.703 157.008
L417.353 160.196
L434.002 188.426
L450.636 186.533
L467.286 199.671" style="fill:none;stroke:#e36c55;stroke-linecap:square;stroke-width:2;"/>
   </g>
   <g id="line2d_21">
    <path clip-path="url(#p1dc60e7a71)" d="
M67.8539 381.809
L84.5035 378.746
L101.137 379.329
L117.787 376.468
L134.421 374.235
L151.07 366.223
L167.704 345.164
L184.354 295.256
L201.003 277.837
L217.637 222.325
L234.286 143.341
L250.92 143.357
L267.57 133.797
L284.204 113.347
L300.853 157.812
L317.503 148.168
L334.136 110.446
L350.786 102.874
L367.42 155.487
L384.069 160.469
L400.703 181.266
L417.353 160.029
L434.002 185.901
L450.636 233.107
L467.286 212.37" style="fill:none;stroke:#e36c55;stroke-linecap:square;stroke-width:2;"/>
   </g>
   <g id="line2d_22">
    <path clip-path="url(#p1dc60e7a71)" d="
M67.8539 379.691
L84.5035 378.361
L101.137 379.68
L117.787 373.368
L134.421 369.968
L151.07 365.173
L167.704 343.508
L184.354 318.827
L201.003 241.179
L217.637 149.369
L234.286 153.938
L250.92 142.425
L267.57 120.019
L284.204 114.343
L300.853 52.5372
L317.503 56.0216
L334.136 108.818
L350.786 78.7022
L367.42 101.522
L384.069 104.338
L400.703 131.965
L417.353 165.542
L434.002 196.933
L450.636 188.229
L467.286 184.79" style="fill:none;stroke:#c53334;stroke-linecap:square;stroke-width:2;"/>
   </g>
   <g id="line2d_23">
    <path clip-path="url(#p1dc60e7a71)" d="
M67.8539 381.526
L84.5035 378.302
L101.137 378.846
L117.787 375.201
L134.421 371.365
L151.07 363.607
L167.704 349.925
L184.354 312.451
L201.003 277.52
L217.637 207.185
L234.286 127.469
L250.92 110.393
L267.57 122.362
L284.204 104.414
L300.853 117.956
L317.503 119.374
L334.136 127.67
L350.786 112.311
L367.42 132.438
L384.069 127.073
L400.703 170.308
L417.353 173.514
L434.002 185.444
L450.636 201.861
L467.286 195.849" style="fill:none;stroke:#c53334;stroke-linecap:square;stroke-width:2;"/>
   </g>
   <g id="patch_3">
    <path d="
M51.21 18.81
L550.496 18.81" style="fill:none;stroke:#000000;stroke-linecap:square;stroke-linejoin:miter;"/>
   </g>
   <g id="patch_4">
    <path d="
M550.496 386.64
L550.496 18.81" style="fill:none;stroke:#000000;stroke-linecap:square;stroke-linejoin:miter;"/>
   </g>
   <g id="patch_5">
    <path d="
M51.21 386.64
L550.496 386.64" style="fill:none;stroke:#000000;stroke-linecap:square;stroke-linejoin:miter;"/>
   </g>
   <g id="patch_6">
    <path d="
M51.21 386.64
L51.21 18.81" style="fill:none;stroke:#000000;stroke-linecap:square;stroke-linejoin:miter;"/>
   </g>
   <g id="matplotlib.axis_1">
    <g id="xtick_1">
     <g id="line2d_24">
      <defs>
       <path d="
M0 0
L0 -4" id="m93b0483c22" style="stroke:#000000;stroke-width:0.5;"/>
      </defs>
      <g>
       <use style="stroke:#000000;stroke-width:0.5;" x="51.21" xlink:href="#m93b0483c22" y="386.64"/>
      </g>
     </g>
     <g id="line2d_25">
      <defs>
       <path d="
M0 0
L0 4" id="m741efc42ff" style="stroke:#000000;stroke-width:0.5;"/>
      </defs>
      <g>
       <use style="stroke:#000000;stroke-width:0.5;" x="51.21" xlink:href="#m741efc42ff" y="18.81"/>
      </g>
     </g>
     <g id="text_1">
      <!-- -7.0 -->
      <defs>
       <path d="
M31.7812 66.4062
Q24.1719 66.4062 20.3281 58.9062
Q16.5 51.4219 16.5 36.375
Q16.5 21.3906 20.3281 13.8906
Q24.1719 6.39062 31.7812 6.39062
Q39.4531 6.39062 43.2812 13.8906
Q47.125 21.3906 47.125 36.375
Q47.125 51.4219 43.2812 58.9062
Q39.4531 66.4062 31.7812 66.4062
M31.7812 74.2188
Q44.0469 74.2188 50.5156 64.5156
Q56.9844 54.8281 56.9844 36.375
Q56.9844 17.9688 50.5156 8.26562
Q44.0469 -1.42188 31.7812 -1.42188
Q19.5312 -1.42188 13.0625 8.26562
Q6.59375 17.9688 6.59375 36.375
Q6.59375 54.8281 13.0625 64.5156
Q19.5312 74.2188 31.7812 74.2188" id="DejaVuSans-30"/>
       <path d="
M8.20312 72.9062
L55.0781 72.9062
L55.0781 68.7031
L28.6094 0
L18.3125 0
L43.2188 64.5938
L8.20312 64.5938
z
" id="DejaVuSans-37"/>
       <path d="
M4.89062 31.3906
L31.2031 31.3906
L31.2031 23.3906
L4.89062 23.3906
z
" id="DejaVuSans-2d"/>
       <path d="
M10.6875 12.4062
L21 12.4062
L21 0
L10.6875 0
z
" id="DejaVuSans-2e"/>
      </defs>
      <g transform="translate(40.1953125 399.758125)scale(0.12 -0.12)">
       <use xlink:href="#DejaVuSans-2d"/>
       <use x="36.083984375" xlink:href="#DejaVuSans-37"/>
       <use x="99.70703125" xlink:href="#DejaVuSans-2e"/>
       <use x="131.494140625" xlink:href="#DejaVuSans-30"/>
      </g>
     </g>
    </g>
    <g id="xtick_2">
     <g id="line2d_26">
      <g>
       <use style="stroke:#000000;stroke-width:0.5;" x="134.424375" xlink:href="#m93b0483c22" y="386.64"/>
      </g>
     </g>
     <g id="line2d_27">
      <g>
       <use style="stroke:#000000;stroke-width:0.5;" x="134.424375" xlink:href="#m741efc42ff" y="18.81"/>
      </g>
     </g>
     <g id="text_2">
      <!-- -2.0 -->
      <defs>
       <path d="
M19.1875 8.29688
L53.6094 8.29688
L53.6094 0
L7.32812 0
L7.32812 8.29688
Q12.9375 14.1094 22.625 23.8906
Q32.3281 33.6875 34.8125 36.5312
Q39.5469 41.8438 41.4219 45.5312
Q43.3125 49.2188 43.3125 52.7812
Q43.3125 58.5938 39.2344 62.25
Q35.1562 65.9219 28.6094 65.9219
Q23.9688 65.9219 18.8125 64.3125
Q13.6719 62.7031 7.8125 59.4219
L7.8125 69.3906
Q13.7656 71.7812 18.9375 73
Q24.125 74.2188 28.4219 74.2188
Q39.75 74.2188 46.4844 68.5469
Q53.2188 62.8906 53.2188 53.4219
Q53.2188 48.9219 51.5312 44.8906
Q49.8594 40.875 45.4062 35.4062
Q44.1875 33.9844 37.6406 27.2188
Q31.1094 20.4531 19.1875 8.29688" id="DejaVuSans-32"/>
      </defs>
      <g transform="translate(123.4096875 399.758125)scale(0.12 -0.12)">
       <use xlink:href="#DejaVuSans-2d"/>
       <use x="36.083984375" xlink:href="#DejaVuSans-32"/>
       <use x="99.70703125" xlink:href="#DejaVuSans-2e"/>
       <use x="131.494140625" xlink:href="#DejaVuSans-30"/>
      </g>
     </g>
    </g>
    <g id="xtick_3">
     <g id="line2d_28">
      <g>
       <use style="stroke:#000000;stroke-width:0.5;" x="217.63875" xlink:href="#m93b0483c22" y="386.64"/>
      </g>
     </g>
     <g id="line2d_29">
      <g>
       <use style="stroke:#000000;stroke-width:0.5;" x="217.63875" xlink:href="#m741efc42ff" y="18.81"/>
      </g>
     </g>
     <g id="text_3">
      <!-- 3.0 -->
      <defs>
       <path d="
M40.5781 39.3125
Q47.6562 37.7969 51.625 33
Q55.6094 28.2188 55.6094 21.1875
Q55.6094 10.4062 48.1875 4.48438
Q40.7656 -1.42188 27.0938 -1.42188
Q22.5156 -1.42188 17.6562 -0.515625
Q12.7969 0.390625 7.625 2.20312
L7.625 11.7188
Q11.7188 9.32812 16.5938 8.10938
Q21.4844 6.89062 26.8125 6.89062
Q36.0781 6.89062 40.9375 10.5469
Q45.7969 14.2031 45.7969 21.1875
Q45.7969 27.6406 41.2812 31.2656
Q36.7656 34.9062 28.7188 34.9062
L20.2188 34.9062
L20.2188 43.0156
L29.1094 43.0156
Q36.375 43.0156 40.2344 45.9219
Q44.0938 48.8281 44.0938 54.2969
Q44.0938 59.9062 40.1094 62.9062
Q36.1406 65.9219 28.7188 65.9219
Q24.6562 65.9219 20.0156 65.0312
Q15.375 64.1562 9.8125 62.3125
L9.8125 71.0938
Q15.4375 72.6562 20.3438 73.4375
Q25.25 74.2188 29.5938 74.2188
Q40.8281 74.2188 47.3594 69.1094
Q53.9062 64.0156 53.9062 55.3281
Q53.9062 49.2656 50.4375 45.0938
Q46.9688 40.9219 40.5781 39.3125" id="DejaVuSans-33"/>
      </defs>
      <g transform="translate(208.9528125 399.758125)scale(0.12 -0.12)">
       <use xlink:href="#DejaVuSans-33"/>
       <use x="63.623046875" xlink:href="#DejaVuSans-2e"/>
       <use x="95.41015625" xlink:href="#DejaVuSans-30"/>
      </g>
     </g>
    </g>
    <g id="xtick_4">
     <g id="line2d_30">
      <g>
       <use style="stroke:#000000;stroke-width:0.5;" x="300.853125" xlink:href="#m93b0483c22" y="386.64"/>
      </g>
     </g>
     <g id="line2d_31">
      <g>
       <use style="stroke:#000000;stroke-width:0.5;" x="300.853125" xlink:href="#m741efc42ff" y="18.81"/>
      </g>
     </g>
     <g id="text_4">
      <!-- 8.0 -->
      <defs>
       <path d="
M31.7812 34.625
Q24.75 34.625 20.7188 30.8594
Q16.7031 27.0938 16.7031 20.5156
Q16.7031 13.9219 20.7188 10.1562
Q24.75 6.39062 31.7812 6.39062
Q38.8125 6.39062 42.8594 10.1719
Q46.9219 13.9688 46.9219 20.5156
Q46.9219 27.0938 42.8906 30.8594
Q38.875 34.625 31.7812 34.625
M21.9219 38.8125
Q15.5781 40.375 12.0312 44.7188
Q8.5 49.0781 8.5 55.3281
Q8.5 64.0625 14.7188 69.1406
Q20.9531 74.2188 31.7812 74.2188
Q42.6719 74.2188 48.875 69.1406
Q55.0781 64.0625 55.0781 55.3281
Q55.0781 49.0781 51.5312 44.7188
Q48 40.375 41.7031 38.8125
Q48.8281 37.1562 52.7969 32.3125
Q56.7812 27.4844 56.7812 20.5156
Q56.7812 9.90625 50.3125 4.23438
Q43.8438 -1.42188 31.7812 -1.42188
Q19.7344 -1.42188 13.25 4.23438
Q6.78125 9.90625 6.78125 20.5156
Q6.78125 27.4844 10.7812 32.3125
Q14.7969 37.1562 21.9219 38.8125
M18.3125 54.3906
Q18.3125 48.7344 21.8438 45.5625
Q25.3906 42.3906 31.7812 42.3906
Q38.1406 42.3906 41.7188 45.5625
Q45.3125 48.7344 45.3125 54.3906
Q45.3125 60.0625 41.7188 63.2344
Q38.1406 66.4062 31.7812 66.4062
Q25.3906 66.4062 21.8438 63.2344
Q18.3125 60.0625 18.3125 54.3906" id="DejaVuSans-38"/>
      </defs>
      <g transform="translate(292.1165625 399.758125)scale(0.12 -0.12)">
       <use xlink:href="#DejaVuSans-38"/>
       <use x="63.623046875" xlink:href="#DejaVuSans-2e"/>
       <use x="95.41015625" xlink:href="#DejaVuSans-30"/>
      </g>
     </g>
    </g>
    <g id="xtick_5">
     <g id="line2d_32">
      <g>
       <use style="stroke:#000000;stroke-width:0.5;" x="384.0675" xlink:href="#m93b0483c22" y="386.64"/>
      </g>
     </g>
     <g id="line2d_33">
      <g>
       <use style="stroke:#000000;stroke-width:0.5;" x="384.0675" xlink:href="#m741efc42ff" y="18.81"/>
      </g>
     </g>
     <g id="text_5">
      <!-- 13.0 -->
      <defs>
       <path d="
M12.4062 8.29688
L28.5156 8.29688
L28.5156 63.9219
L10.9844 60.4062
L10.9844 69.3906
L28.4219 72.9062
L38.2812 72.9062
L38.2812 8.29688
L54.3906 8.29688
L54.3906 0
L12.4062 0
z
" id="DejaVuSans-31"/>
      </defs>
      <g transform="translate(371.765625 399.758125)scale(0.12 -0.12)">
       <use xlink:href="#DejaVuSans-31"/>
       <use x="63.623046875" xlink:href="#DejaVuSans-33"/>
       <use x="127.24609375" xlink:href="#DejaVuSans-2e"/>
       <use x="159.033203125" xlink:href="#DejaVuSans-30"/>
      </g>
     </g>
    </g>
    <g id="xtick_6">
     <g id="line2d_34">
      <g>
       <use style="stroke:#000000;stroke-width:0.5;" x="467.281875" xlink:href="#m93b0483c22" y="386.64"/>
      </g>
     </g>
     <g id="line2d_35">
      <g>
       <use style="stroke:#000000;stroke-width:0.5;" x="467.281875" xlink:href="#m741efc42ff" y="18.81"/>
      </g>
     </g>
     <g id="text_6">
      <!-- 18.0 -->
      <g transform="translate(454.98 399.758125)scale(0.12 -0.12)">
       <use xlink:href="#DejaVuSans-31"/>
       <use x="63.623046875" xlink:href="#DejaVuSans-38"/>
       <use x="127.24609375" xlink:href="#DejaVuSans-2e"/>
       <use x="159.033203125" xlink:href="#DejaVuSans-30"/>
      </g>
     </g>
    </g>
    <g id="xtick_7">
     <g id="line2d_36">
      <g>
       <use style="stroke:#000000;stroke-width:0.5;" x="550.49625" xlink:href="#m93b0483c22" y="386.64"/>
      </g>
     </g>
     <g id="line2d_37">
      <g>
       <use style="stroke:#000000;stroke-width:0.5;" x="550.49625" xlink:href="#m741efc42ff" y="18.81"/>
      </g>
     </g>
     <g id="text_7">
      <!-- 23.0 -->
      <g transform="translate(537.975 399.758125)scale(0.12 -0.12)">
       <use xlink:href="#DejaVuSans-32"/>
       <use x="63.623046875" xlink:href="#DejaVuSans-33"/>
       <use x="127.24609375" xlink:href="#DejaVuSans-2e"/>
       <use x="159.033203125" xlink:href="#DejaVuSans-30"/>
      </g>
     </g>
    </g>
    <g id="text_8">
     <!-- energy - nominal absorption edge [eV] -->
     <defs>
      <path d="
M28.6094 0
L0.78125 72.9062
L11.0781 72.9062
L34.1875 11.5312
L57.3281 72.9062
L67.5781 72.9062
L39.7969 0
z
" id="DejaVuSans-56"/>
      <path d="
M18.3125 70.2188
L18.3125 54.6875
L36.8125 54.6875
L36.8125 47.7031
L18.3125 47.7031
L18.3125 18.0156
Q18.3125 11.3281 20.1406 9.42188
Q21.9688 7.51562 27.5938 7.51562
L36.8125 7.51562
L36.8125 0
L27.5938 0
Q17.1875 0 13.2344 3.875
Q9.28125 7.76562 9.28125 18.0156
L9.28125 47.7031
L2.6875 47.7031
L2.6875 54.6875
L9.28125 54.6875
L9.28125 70.2188
z
" id="DejaVuSans-74"/>
      <path d="
M30.6094 48.3906
Q23.3906 48.3906 19.1875 42.75
Q14.9844 37.1094 14.9844 27.2969
Q14.9844 17.4844 19.1562 11.8438
Q23.3438 6.20312 30.6094 6.20312
Q37.7969 6.20312 41.9844 11.8594
Q46.1875 17.5312 46.1875 27.2969
Q46.1875 37.0156 41.9844 42.7031
Q37.7969 48.3906 30.6094 48.3906
M30.6094 56
Q42.3281 56 49.0156 48.375
Q55.7188 40.7656 55.7188 27.2969
Q55.7188 13.875 49.0156 6.21875
Q42.3281 -1.42188 30.6094 -1.42188
Q18.8438 -1.42188 12.1719 6.21875
Q5.51562 13.875 5.51562 27.2969
Q5.51562 40.7656 12.1719 48.375
Q18.8438 56 30.6094 56" id="DejaVuSans-6f"/>
      <path d="
M8.59375 75.9844
L29.2969 75.9844
L29.2969 69
L17.5781 69
L17.5781 -6.20312
L29.2969 -6.20312
L29.2969 -13.1875
L8.59375 -13.1875
z
" id="DejaVuSans-5b"/>
      <path d="
M52 44.1875
Q55.375 50.25 60.0625 53.125
Q64.75 56 71.0938 56
Q79.6406 56 84.2812 50.0156
Q88.9219 44.0469 88.9219 33.0156
L88.9219 0
L79.8906 0
L79.8906 32.7188
Q79.8906 40.5781 77.0938 44.375
Q74.3125 48.1875 68.6094 48.1875
Q61.625 48.1875 57.5625 43.5469
Q53.5156 38.9219 53.5156 30.9062
L53.5156 0
L44.4844 0
L44.4844 32.7188
Q44.4844 40.625 41.7031 44.4062
Q38.9219 48.1875 33.1094 48.1875
Q26.2188 48.1875 22.1562 43.5312
Q18.1094 38.875 18.1094 30.9062
L18.1094 0
L9.07812 0
L9.07812 54.6875
L18.1094 54.6875
L18.1094 46.1875
Q21.1875 51.2188 25.4844 53.6094
Q29.7812 56 35.6875 56
Q41.6562 56 45.8281 52.9688
Q50 49.9531 52 44.1875" id="DejaVuSans-6d"/>
      <path d="
M54.8906 33.0156
L54.8906 0
L45.9062 0
L45.9062 32.7188
Q45.9062 40.4844 42.875 44.3281
Q39.8438 48.1875 33.7969 48.1875
Q26.5156 48.1875 22.3125 43.5469
Q18.1094 38.9219 18.1094 30.9062
L18.1094 0
L9.07812 0
L9.07812 54.6875
L18.1094 54.6875
L18.1094 46.1875
Q21.3438 51.125 25.7031 53.5625
Q30.0781 56 35.7969 56
Q45.2188 56 50.0469 50.1719
Q54.8906 44.3438 54.8906 33.0156" id="DejaVuSans-6e"/>
      <path d="
M34.2812 27.4844
Q23.3906 27.4844 19.1875 25
Q14.9844 22.5156 14.9844 16.5
Q14.9844 11.7188 18.1406 8.90625
Q21.2969 6.10938 26.7031 6.10938
Q34.1875 6.10938 38.7031 11.4062
Q43.2188 16.7031 43.2188 25.4844
L43.2188 27.4844
z

M52.2031 31.2031
L52.2031 0
L43.2188 0
L43.2188 8.29688
Q40.1406 3.32812 35.5469 0.953125
Q30.9531 -1.42188 24.3125 -1.42188
Q15.9219 -1.42188 10.9531 3.29688
Q6 8.01562 6 15.9219
Q6 25.1406 12.1719 29.8281
Q18.3594 34.5156 30.6094 34.5156
L43.2188 34.5156
L43.2188 35.4062
Q43.2188 41.6094 39.1406 45
Q35.0625 48.3906 27.6875 48.3906
Q23 48.3906 18.5469 47.2656
Q14.1094 46.1406 10.0156 43.8906
L10.0156 52.2031
Q14.9375 54.1094 19.5781 55.0469
Q24.2188 56 28.6094 56
Q40.4844 56 46.3438 49.8438
Q52.2031 43.7031 52.2031 31.2031" id="DejaVuSans-61"/>
      <path d="
M9.42188 75.9844
L18.4062 75.9844
L18.4062 0
L9.42188 0
z
" id="DejaVuSans-6c"/>
      <path id="DejaVuSans-20"/>
      <path d="
M32.1719 -5.07812
Q28.375 -14.8438 24.75 -17.8125
Q21.1406 -20.7969 15.0938 -20.7969
L7.90625 -20.7969
L7.90625 -13.2812
L13.1875 -13.2812
Q16.8906 -13.2812 18.9375 -11.5156
Q21 -9.76562 23.4844 -3.21875
L25.0938 0.875
L2.98438 54.6875
L12.5 54.6875
L29.5938 11.9219
L46.6875 54.6875
L56.2031 54.6875
z
" id="DejaVuSans-79"/>
      <path d="
M30.4219 75.9844
L30.4219 -13.1875
L9.71875 -13.1875
L9.71875 -6.20312
L21.3906 -6.20312
L21.3906 69
L9.71875 69
L9.71875 75.9844
z
" id="DejaVuSans-5d"/>
      <path d="
M9.42188 54.6875
L18.4062 54.6875
L18.4062 0
L9.42188 0
z

M9.42188 75.9844
L18.4062 75.9844
L18.4062 64.5938
L9.42188 64.5938
z
" id="DejaVuSans-69"/>
      <path d="
M45.4062 27.9844
Q45.4062 37.75 41.375 43.1094
Q37.3594 48.4844 30.0781 48.4844
Q22.8594 48.4844 18.8281 43.1094
Q14.7969 37.75 14.7969 27.9844
Q14.7969 18.2656 18.8281 12.8906
Q22.8594 7.51562 30.0781 7.51562
Q37.3594 7.51562 41.375 12.8906
Q45.4062 18.2656 45.4062 27.9844
M54.3906 6.78125
Q54.3906 -7.17188 48.1875 -13.9844
Q42 -20.7969 29.2031 -20.7969
Q24.4688 -20.7969 20.2656 -20.0938
Q16.0625 -19.3906 12.1094 -17.9219
L12.1094 -9.1875
Q16.0625 -11.3281 19.9219 -12.3438
Q23.7812 -13.375 27.7812 -13.375
Q36.625 -13.375 41.0156 -8.76562
Q45.4062 -4.15625 45.4062 5.17188
L45.4062 9.625
Q42.625 4.78125 38.2812 2.39062
Q33.9375 0 27.875 0
Q17.8281 0 11.6719 7.65625
Q5.51562 15.3281 5.51562 27.9844
Q5.51562 40.6719 11.6719 48.3281
Q17.8281 56 27.875 56
Q33.9375 56 38.2812 53.6094
Q42.625 51.2188 45.4062 46.3906
L45.4062 54.6875
L54.3906 54.6875
z
" id="DejaVuSans-67"/>
      <path d="
M45.4062 46.3906
L45.4062 75.9844
L54.3906 75.9844
L54.3906 0
L45.4062 0
L45.4062 8.20312
Q42.5781 3.32812 38.25 0.953125
Q33.9375 -1.42188 27.875 -1.42188
Q17.9688 -1.42188 11.7344 6.48438
Q5.51562 14.4062 5.51562 27.2969
Q5.51562 40.1875 11.7344 48.0938
Q17.9688 56 27.875 56
Q33.9375 56 38.25 53.625
Q42.5781 51.2656 45.4062 46.3906
M14.7969 27.2969
Q14.7969 17.3906 18.875 11.75
Q22.9531 6.10938 30.0781 6.10938
Q37.2031 6.10938 41.2969 11.75
Q45.4062 17.3906 45.4062 27.2969
Q45.4062 37.2031 41.2969 42.8438
Q37.2031 48.4844 30.0781 48.4844
Q22.9531 48.4844 18.875 42.8438
Q14.7969 37.2031 14.7969 27.2969" id="DejaVuSans-64"/>
      <path d="
M56.2031 29.5938
L56.2031 25.2031
L14.8906 25.2031
Q15.4844 15.9219 20.4844 11.0625
Q25.4844 6.20312 34.4219 6.20312
Q39.5938 6.20312 44.4531 7.46875
Q49.3125 8.73438 54.1094 11.2812
L54.1094 2.78125
Q49.2656 0.734375 44.1875 -0.34375
Q39.1094 -1.42188 33.8906 -1.42188
Q20.7969 -1.42188 13.1562 6.1875
Q5.51562 13.8125 5.51562 26.8125
Q5.51562 40.2344 12.7656 48.1094
Q20.0156 56 32.3281 56
Q43.3594 56 49.7812 48.8906
Q56.2031 41.7969 56.2031 29.5938
M47.2188 32.2344
Q47.125 39.5938 43.0938 43.9844
Q39.0625 48.3906 32.4219 48.3906
Q24.9062 48.3906 20.3906 44.1406
Q15.875 39.8906 15.1875 32.1719
z
" id="DejaVuSans-65"/>
      <path d="
M48.6875 27.2969
Q48.6875 37.2031 44.6094 42.8438
Q40.5312 48.4844 33.4062 48.4844
Q26.2656 48.4844 22.1875 42.8438
Q18.1094 37.2031 18.1094 27.2969
Q18.1094 17.3906 22.1875 11.75
Q26.2656 6.10938 33.4062 6.10938
Q40.5312 6.10938 44.6094 11.75
Q48.6875 17.3906 48.6875 27.2969
M18.1094 46.3906
Q20.9531 51.2656 25.2656 53.625
Q29.5938 56 35.5938 56
Q45.5625 56 51.7812 48.0938
Q58.0156 40.1875 58.0156 27.2969
Q58.0156 14.4062 51.7812 6.48438
Q45.5625 -1.42188 35.5938 -1.42188
Q29.5938 -1.42188 25.2656 0.953125
Q20.9531 3.32812 18.1094 8.20312
L18.1094 0
L9.07812 0
L9.07812 75.9844
L18.1094 75.9844
z
" id="DejaVuSans-62"/>
      <path d="
M18.1094 8.20312
L18.1094 -20.7969
L9.07812 -20.7969
L9.07812 54.6875
L18.1094 54.6875
L18.1094 46.3906
Q20.9531 51.2656 25.2656 53.625
Q29.5938 56 35.5938 56
Q45.5625 56 51.7812 48.0938
Q58.0156 40.1875 58.0156 27.2969
Q58.0156 14.4062 51.7812 6.48438
Q45.5625 -1.42188 35.5938 -1.42188
Q29.5938 -1.42188 25.2656 0.953125
Q20.9531 3.32812 18.1094 8.20312
M48.6875 27.2969
Q48.6875 37.2031 44.6094 42.8438
Q40.5312 48.4844 33.4062 48.4844
Q26.2656 48.4844 22.1875 42.8438
Q18.1094 37.2031 18.1094 27.2969
Q18.1094 17.3906 22.1875 11.75
Q26.2656 6.10938 33.4062 6.10938
Q40.5312 6.10938 44.6094 11.75
Q48.6875 17.3906 48.6875 27.2969" id="DejaVuSans-70"/>
      <path d="
M44.2812 53.0781
L44.2812 44.5781
Q40.4844 46.5312 36.375 47.5
Q32.2812 48.4844 27.875 48.4844
Q21.1875 48.4844 17.8438 46.4375
Q14.5 44.3906 14.5 40.2812
Q14.5 37.1562 16.8906 35.375
Q19.2812 33.5938 26.5156 31.9844
L29.5938 31.2969
Q39.1562 29.25 43.1875 25.5156
Q47.2188 21.7812 47.2188 15.0938
Q47.2188 7.46875 41.1875 3.01562
Q35.1562 -1.42188 24.6094 -1.42188
Q20.2188 -1.42188 15.4531 -0.5625
Q10.6875 0.296875 5.42188 2
L5.42188 11.2812
Q10.4062 8.6875 15.2344 7.39062
Q20.0625 6.10938 24.8125 6.10938
Q31.1562 6.10938 34.5625 8.28125
Q37.9844 10.4531 37.9844 14.4062
Q37.9844 18.0625 35.5156 20.0156
Q33.0625 21.9688 24.7031 23.7812
L21.5781 24.5156
Q13.2344 26.2656 9.51562 29.9062
Q5.8125 33.5469 5.8125 39.8906
Q5.8125 47.6094 11.2812 51.7969
Q16.75 56 26.8125 56
Q31.7812 56 36.1719 55.2656
Q40.5781 54.5469 44.2812 53.0781" id="DejaVuSans-73"/>
      <path d="
M41.1094 46.2969
Q39.5938 47.1719 37.8125 47.5781
Q36.0312 48 33.8906 48
Q26.2656 48 22.1875 43.0469
Q18.1094 38.0938 18.1094 28.8125
L18.1094 0
L9.07812 0
L9.07812 54.6875
L18.1094 54.6875
L18.1094 46.1875
Q20.9531 51.1719 25.4844 53.5781
Q30.0312 56 36.5312 56
Q37.4531 56 38.5781 55.875
Q39.7031 55.7656 41.0625 55.5156
z
" id="DejaVuSans-72"/>
     </defs>
     <g transform="translate(185.0990625 416.371875)scale(0.12 -0.12)">
      <use xlink:href="#DejaVuSans-65"/>
      <use x="61.5234375" xlink:href="#DejaVuSans-6e"/>
      <use x="124.90234375" xlink:href="#DejaVuSans-65"/>
      <use x="186.42578125" xlink:href="#DejaVuSans-72"/>
      <use x="225.7890625" xlink:href="#DejaVuSans-67"/>
      <use x="289.265625" xlink:href="#DejaVuSans-79"/>
      <use x="348.4453125" xlink:href="#DejaVuSans-20"/>
      <use x="380.232421875" xlink:href="#DejaVuSans-2d"/>
      <use x="416.31640625" xlink:href="#DejaVuSans-20"/>
      <use x="448.103515625" xlink:href="#DejaVuSans-6e"/>
      <use x="511.482421875" xlink:href="#DejaVuSans-6f"/>
      <use x="572.6640625" xlink:href="#DejaVuSans-6d"/>
      <use x="670.076171875" xlink:href="#DejaVuSans-69"/>
      <use x="697.859375" xlink:href="#DejaVuSans-6e"/>
      <use x="761.23828125" xlink:href="#DejaVuSans-61"/>
      <use x="822.517578125" xlink:href="#DejaVuSans-6c"/>
      <use x="850.30078125" xlink:href="#DejaVuSans-20"/>
      <use x="882.087890625" xlink:href="#DejaVuSans-61"/>
      <use x="943.3671875" xlink:href="#DejaVuSans-62"/>
      <use x="1006.84375" xlink:href="#DejaVuSans-73"/>
      <use x="1058.94335938" xlink:href="#DejaVuSans-6f"/>
      <use x="1120.125" xlink:href="#DejaVuSans-72"/>
      <use x="1161.23828125" xlink:href="#DejaVuSans-70"/>
      <use x="1224.71484375" xlink:href="#DejaVuSans-74"/>
      <use x="1263.92382812" xlink:href="#DejaVuSans-69"/>
      <use x="1291.70703125" xlink:href="#DejaVuSans-6f"/>
      <use x="1352.88867188" xlink:href="#DejaVuSans-6e"/>
      <use x="1416.26757812" xlink:href="#DejaVuSans-20"/>
      <use x="1448.0546875" xlink:href="#DejaVuSans-65"/>
      <use x="1509.578125" xlink:href="#DejaVuSans-64"/>
      <use x="1573.0546875" xlink:href="#DejaVuSans-67"/>
      <use x="1636.53125" xlink:href="#DejaVuSans-65"/>
      <use x="1698.0546875" xlink:href="#DejaVuSans-20"/>
      <use x="1729.84179688" xlink:href="#DejaVuSans-5b"/>
      <use x="1768.85546875" xlink:href="#DejaVuSans-65"/>
      <use x="1830.37890625" xlink:href="#DejaVuSans-56"/>
      <use x="1898.78710938" xlink:href="#DejaVuSans-5d"/>
     </g>
    </g>
   </g>
   <g id="matplotlib.axis_2">
    <g id="ytick_1">
     <g id="line2d_38">
      <defs>
       <path d="
M0 0
L4 0" id="m728421d6d4" style="stroke:#000000;stroke-width:0.5;"/>
      </defs>
      <g>
       <use style="stroke:#000000;stroke-width:0.5;" x="51.21" xlink:href="#m728421d6d4" y="386.64"/>
      </g>
     </g>
     <g id="line2d_39">
      <defs>
       <path d="
M0 0
L-4 0" id="mcb0005524f" style="stroke:#000000;stroke-width:0.5;"/>
      </defs>
      <g>
       <use style="stroke:#000000;stroke-width:0.5;" x="550.49625" xlink:href="#mcb0005524f" y="386.64"/>
      </g>
     </g>
     <g id="text_9">
      <!-- 0.0 -->
      <g transform="translate(29.714375 389.95125)scale(0.12 -0.12)">
       <use xlink:href="#DejaVuSans-30"/>
       <use x="63.623046875" xlink:href="#DejaVuSans-2e"/>
       <use x="95.41015625" xlink:href="#DejaVuSans-30"/>
      </g>
     </g>
    </g>
    <g id="ytick_2">
     <g id="line2d_40">
      <g>
       <use style="stroke:#000000;stroke-width:0.5;" x="51.21" xlink:href="#m728421d6d4" y="294.6825"/>
      </g>
     </g>
     <g id="line2d_41">
      <g>
       <use style="stroke:#000000;stroke-width:0.5;" x="550.49625" xlink:href="#mcb0005524f" y="294.6825"/>
      </g>
     </g>
     <g id="text_10">
      <!-- 0.5 -->
      <defs>
       <path d="
M10.7969 72.9062
L49.5156 72.9062
L49.5156 64.5938
L19.8281 64.5938
L19.8281 46.7344
Q21.9688 47.4688 24.1094 47.8281
Q26.2656 48.1875 28.4219 48.1875
Q40.625 48.1875 47.75 41.5
Q54.8906 34.8125 54.8906 23.3906
Q54.8906 11.625 47.5625 5.09375
Q40.2344 -1.42188 26.9062 -1.42188
Q22.3125 -1.42188 17.5469 -0.640625
Q12.7969 0.140625 7.71875 1.70312
L7.71875 11.625
Q12.1094 9.23438 16.7969 8.0625
Q21.4844 6.89062 26.7031 6.89062
Q35.1562 6.89062 40.0781 11.3281
Q45.0156 15.7656 45.0156 23.3906
Q45.0156 31 40.0781 35.4375
Q35.1562 39.8906 26.7031 39.8906
Q22.75 39.8906 18.8125 39.0156
Q14.8906 38.1406 10.7969 36.2812
z
" id="DejaVuSans-35"/>
      </defs>
      <g transform="translate(29.965625 297.99375)scale(0.12 -0.12)">
       <use xlink:href="#DejaVuSans-30"/>
       <use x="63.623046875" xlink:href="#DejaVuSans-2e"/>
       <use x="95.41015625" xlink:href="#DejaVuSans-35"/>
      </g>
     </g>
    </g>
    <g id="ytick_3">
     <g id="line2d_42">
      <g>
       <use style="stroke:#000000;stroke-width:0.5;" x="51.21" xlink:href="#m728421d6d4" y="202.725"/>
      </g>
     </g>
     <g id="line2d_43">
      <g>
       <use style="stroke:#000000;stroke-width:0.5;" x="550.49625" xlink:href="#mcb0005524f" y="202.725"/>
      </g>
     </g>
     <g id="text_11">
      <!-- 1.0 -->
      <g transform="translate(30.24125 206.03625)scale(0.12 -0.12)">
       <use xlink:href="#DejaVuSans-31"/>
       <use x="63.623046875" xlink:href="#DejaVuSans-2e"/>
       <use x="95.41015625" xlink:href="#DejaVuSans-30"/>
      </g>
     </g>
    </g>
    <g id="ytick_4">
     <g id="line2d_44">
      <g>
       <use style="stroke:#000000;stroke-width:0.5;" x="51.21" xlink:href="#m728421d6d4" y="110.7675"/>
      </g>
     </g>
     <g id="line2d_45">
      <g>
       <use style="stroke:#000000;stroke-width:0.5;" x="550.49625" xlink:href="#mcb0005524f" y="110.7675"/>
      </g>
     </g>
     <g id="text_12">
      <!-- 1.5 -->
      <g transform="translate(30.4925 114.07875)scale(0.12 -0.12)">
       <use xlink:href="#DejaVuSans-31"/>
       <use x="63.623046875" xlink:href="#DejaVuSans-2e"/>
       <use x="95.41015625" xlink:href="#DejaVuSans-35"/>
      </g>
     </g>
    </g>
    <g id="ytick_5">
     <g id="line2d_46">
      <g>
       <use style="stroke:#000000;stroke-width:0.5;" x="51.21" xlink:href="#m728421d6d4" y="18.81"/>
      </g>
     </g>
     <g id="line2d_47">
      <g>
       <use style="stroke:#000000;stroke-width:0.5;" x="550.49625" xlink:href="#mcb0005524f" y="18.81"/>
      </g>
     </g>
     <g id="text_13">
      <!-- 2.0 -->
      <g transform="translate(29.8025 22.12125)scale(0.12 -0.12)">
       <use xlink:href="#DejaVuSans-32"/>
       <use x="63.623046875" xlink:href="#DejaVuSans-2e"/>
       <use x="95.41015625" xlink:href="#DejaVuSans-30"/>
      </g>
     </g>
    </g>
    <g id="text_14">
     <!-- standardized XANES signal -->
     <defs>
      <path d="
M9.8125 72.9062
L23.0938 72.9062
L55.4219 11.9219
L55.4219 72.9062
L64.9844 72.9062
L64.9844 0
L51.7031 0
L19.3906 60.9844
L19.3906 0
L9.8125 0
z
" id="DejaVuSans-4e"/>
      <path d="
M5.51562 54.6875
L48.1875 54.6875
L48.1875 46.4844
L14.4062 7.17188
L48.1875 7.17188
L48.1875 0
L4.29688 0
L4.29688 8.20312
L38.0938 47.5156
L5.51562 47.5156
z
" id="DejaVuSans-7a"/>
      <path d="
M9.8125 72.9062
L55.9062 72.9062
L55.9062 64.5938
L19.6719 64.5938
L19.6719 43.0156
L54.3906 43.0156
L54.3906 34.7188
L19.6719 34.7188
L19.6719 8.29688
L56.7812 8.29688
L56.7812 0
L9.8125 0
z
" id="DejaVuSans-45"/>
      <path d="
M6.29688 72.9062
L16.8906 72.9062
L35.0156 45.7969
L53.2188 72.9062
L63.8125 72.9062
L40.375 37.8906
L65.375 0
L54.7812 0
L34.2812 31
L13.625 0
L2.98438 0
L29 38.9219
z
" id="DejaVuSans-58"/>
      <path d="
M34.1875 63.1875
L20.7969 26.9062
L47.6094 26.9062
z

M28.6094 72.9062
L39.7969 72.9062
L67.5781 0
L57.3281 0
L50.6875 18.7031
L17.8281 18.7031
L11.1875 0
L0.78125 0
z
" id="DejaVuSans-41"/>
      <path d="
M53.5156 70.5156
L53.5156 60.8906
Q47.9062 63.5781 42.9219 64.8906
Q37.9375 66.2188 33.2969 66.2188
Q25.25 66.2188 20.875 63.0938
Q16.5 59.9688 16.5 54.2031
Q16.5 49.3594 19.4062 46.8906
Q22.3125 44.4375 30.4219 42.9219
L36.375 41.7031
Q47.4062 39.5938 52.6562 34.2969
Q57.9062 29 57.9062 20.125
Q57.9062 9.51562 50.7969 4.04688
Q43.7031 -1.42188 29.9844 -1.42188
Q24.8125 -1.42188 18.9688 -0.25
Q13.1406 0.921875 6.89062 3.21875
L6.89062 13.375
Q12.8906 10.0156 18.6562 8.29688
Q24.4219 6.59375 29.9844 6.59375
Q38.4219 6.59375 43.0156 9.90625
Q47.6094 13.2344 47.6094 19.3906
Q47.6094 24.75 44.3125 27.7812
Q41.0156 30.8125 33.5 32.3281
L27.4844 33.5
Q16.4531 35.6875 11.5156 40.375
Q6.59375 45.0625 6.59375 53.4219
Q6.59375 63.0938 13.4062 68.6562
Q20.2188 74.2188 32.1719 74.2188
Q37.3125 74.2188 42.625 73.2812
Q47.9531 72.3594 53.5156 70.5156" id="DejaVuSans-53"/>
     </defs>
     <g transform="translate(22.21875 282.958125)rotate(-90.0)scale(0.12 -0.12)">
      <use xlink:href="#DejaVuSans-73"/>
      <use x="52.099609375" xlink:href="#DejaVuSans-74"/>
      <use x="91.30859375" xlink:href="#DejaVuSans-61"/>
      <use x="152.587890625" xlink:href="#DejaVuSans-6e"/>
      <use x="215.966796875" xlink:href="#DejaVuSans-64"/>
      <use x="279.443359375" xlink:href="#DejaVuSans-61"/>
      <use x="340.72265625" xlink:href="#DejaVuSans-72"/>
      <use x="380.0859375" xlink:href="#DejaVuSans-64"/>
      <use x="443.5625" xlink:href="#DejaVuSans-69"/>
      <use x="471.345703125" xlink:href="#DejaVuSans-7a"/>
      <use x="523.8359375" xlink:href="#DejaVuSans-65"/>
      <use x="585.359375" xlink:href="#DejaVuSans-64"/>
      <use x="648.8359375" xlink:href="#DejaVuSans-20"/>
      <use x="680.623046875" xlink:href="#DejaVuSans-58"/>
      <use x="749.12890625" xlink:href="#DejaVuSans-41"/>
      <use x="817.537109375" xlink:href="#DejaVuSans-4e"/>
      <use x="892.341796875" xlink:href="#DejaVuSans-45"/>
      <use x="955.525390625" xlink:href="#DejaVuSans-53"/>
      <use x="1019.00195312" xlink:href="#DejaVuSans-20"/>
      <use x="1050.7890625" xlink:href="#DejaVuSans-73"/>
      <use x="1102.88867188" xlink:href="#DejaVuSans-69"/>
      <use x="1130.671875" xlink:href="#DejaVuSans-67"/>
      <use x="1194.1484375" xlink:href="#DejaVuSans-6e"/>
      <use x="1257.52734375" xlink:href="#DejaVuSans-61"/>
      <use x="1318.80664062" xlink:href="#DejaVuSans-6c"/>
     </g>
    </g>
   </g>
  </g>
 </g>
 <defs>
  <clipPath id="p1dc60e7a71">
   <rect height="367.83" width="499.28625" x="51.21" y="18.81"/>
  </clipPath>
 </defs>
</svg>
