<?xml version="1.0" encoding="utf-8" standalone="no"?>
<!DOCTYPE svg PUBLIC "-//W3C//DTD SVG 1.1//EN"
  "http://www.w3.org/Graphics/SVG/1.1/DTD/svg11.dtd">
<!-- Created with matplotlib (http://matplotlib.org/) -->
<svg height="432pt" version="1.1" viewBox="0 0 576 432" width="576pt" xmlns="http://www.w3.org/2000/svg" xmlns:xlink="http://www.w3.org/1999/xlink">
 <defs>
  <style type="text/css">
*{stroke-linecap:butt;stroke-linejoin:round;}
  </style>
 </defs>
 <g id="figure_1">
  <g id="patch_1">
   <path d="
M0 432
L576 432
L576 0
L0 0
z
" style="fill:none;"/>
  </g>
  <g id="axes_1">
   <g id="patch_2">
    <path d="
M51.21 386.64
L544.956 386.64
L544.956 18.81
L51.21 18.81
z
" style="fill:none;"/>
   </g>
   <g id="line2d_1">
    <path clip-path="url(#p333281e298)" d="
M67.6692 381.267
L84.134 379.76
L100.583 377.771
L117.048 377.487
L133.497 370.972
L149.962 368.516
L166.411 355.536
L182.876 327.087
L199.341 294.432
L215.79 216.598
L232.255 153
L248.704 107.391
L265.169 121.75
L281.618 112.322
L298.083 76.8677
L314.548 74.2624
L330.997 109.377
L347.462 96.2211
L363.911 78.1097
L380.376 136.41
L396.825 105.332
L413.29 153.249
L429.754 148.465
L446.204 185.484
L462.668 175.507
L479.118 196.452
L495.582 198.178
L512.032 199.595
L528.496 197.362" style="fill:none;stroke:#4961d2;stroke-linecap:square;stroke-width:2;"/>
   </g>
   <g id="line2d_2">
    <path clip-path="url(#p333281e298)" d="
M67.6692 381.601
L84.134 380.403
L100.583 377.329
L117.048 377.081
L133.497 371.902
L149.962 365.534
L166.411 355.359
L182.876 334.65
L199.341 283.446
L215.79 211.665
L232.255 146.634
L248.704 101.906
L265.169 90.6233
L281.618 90.3037
L298.083 51.3232
L314.548 58.9081
L330.997 73.8077
L347.462 85.6115
L363.911 71.8493
L380.376 99.8331
L396.825 102.327
L413.29 129.189
L429.754 152.12
L446.204 174.456
L462.668 173.957
L479.118 183.818
L495.582 179.596
L512.032 193.925
L528.496 182.742" style="fill:none;stroke:#6a8bef;stroke-linecap:square;stroke-width:2;"/>
   </g>
   <g id="line2d_3">
    <path clip-path="url(#p333281e298)" d="
M67.6692 382.531
L84.134 380.9
L100.583 378.167
L117.048 379.174
L133.497 375.829
L149.962 367.917
L166.411 361.434
L182.876 334.537
L199.341 310.23
L215.79 240.694
L232.255 182.807
L248.704 141.481
L265.169 133.793
L281.618 119.873
L298.083 93.5822
L314.548 105.084
L330.997 85.4404
L347.462 91.3232
L363.911 77.2186
L380.376 107.624
L396.825 124.504
L413.29 139.948
L429.754 169.827
L446.204 184.564
L462.668 206.794
L479.118 206.23
L495.582 191.321
L512.032 201.158
L528.496 215.645" style="fill:none;stroke:#8db0fe;stroke-linecap:square;stroke-width:2;"/>
   </g>
   <g id="line2d_4">
    <path clip-path="url(#p333281e298)" d="
M67.6692 381.951
L84.134 381.962
L100.583 378.64
L117.048 376.532
L133.497 373.843
L149.962 366.675
L166.411 356.476
L182.876 336.405
L199.341 277.594
L215.79 211.755
L232.255 168.818
L248.704 114.898
L265.169 102.17
L281.618 95.2694
L298.083 64.8942
L314.548 46.0512
L330.997 59.9834
L347.462 71.4565
L363.911 49.3185
L380.376 71.4311
L396.825 98.3351
L413.29 123.997
L429.754 155.709
L446.204 167.623
L462.668 170.706
L479.118 182.756
L495.582 178.224
L512.032 206.152
L528.496 193.746" style="fill:none;stroke:#8db0fe;stroke-linecap:square;stroke-width:2;"/>
   </g>
   <g id="line2d_5">
    <path clip-path="url(#p333281e298)" d="
M67.6692 383.045
L84.134 380.359
L100.583 380.598
L117.048 379.137
L133.497 376.592
L149.962 369.459
L166.411 357.978
L182.876 332.274
L199.341 323.146
L215.79 253.764
L232.255 191.338
L248.704 161.57
L265.169 157.644
L281.618 133.139
L298.083 103.609
L314.548 117.779
L330.997 74.0074
L347.462 84.4794
L363.911 69.3111
L380.376 94.7503
L396.825 118.589
L413.29 131.474
L429.754 170.775
L446.204 176.766
L462.668 215.84
L479.118 213.841
L495.582 205.116
L512.032 208.466
L528.496 231.931" style="fill:none;stroke:#afcafc;stroke-linecap:square;stroke-width:2;"/>
   </g>
   <g id="line2d_6">
    <path clip-path="url(#p333281e298)" d="
M67.6692 381.618
L84.134 381.784
L100.583 378.66
L117.048 378.269
L133.497 375.389
L149.962 368.39
L166.411 355.802
L182.876 330.068
L199.341 291.5
L215.79 232.296
L232.255 165.345
L248.704 135.231
L265.169 112.702
L281.618 101.967
L298.083 75.9474
L314.548 89.4716
L330.997 84.5055
L347.462 76.3162
L363.911 76.8447
L380.376 105.27
L396.825 117.334
L413.29 149.917
L429.754 162.505
L446.204 181.939
L462.668 198.59
L479.118 176.986
L495.582 186.65
L512.032 193.918
L528.496 200.739" style="fill:none;stroke:#afcafc;stroke-linecap:square;stroke-width:2;"/>
   </g>
   <g id="line2d_7">
    <path clip-path="url(#p333281e298)" d="
M67.6692 381.883
L84.134 380.786
L100.583 379.238
L117.048 376.907
L133.497 373.192
L149.962 368.425
L166.411 349.995
L182.876 324.939
L199.341 276.399
L215.79 221.307
L232.255 167.118
L248.704 129.556
L265.169 120.972
L281.618 96.7843
L298.083 36.9244
L314.548 67.0461
L330.997 60.1247
L347.462 36.8307
L363.911 79.3326
L380.376 48.6592
L396.825 113.236
L413.29 140.415
L429.754 173.385
L446.204 170.932
L462.668 182.631
L479.118 194.629
L495.582 197.276
L512.032 197.061
L528.496 210.115" style="fill:none;stroke:#afcafc;stroke-linecap:square;stroke-width:2;"/>
   </g>
   <g id="line2d_8">
    <path clip-path="url(#p333281e298)" d="
M67.6692 381.597
L84.134 379.819
L100.583 379.141
L117.048 378.038
L133.497 371.922
L149.962 365.476
L166.411 350.094
L182.876 317.192
L199.341 288.293
L215.79 250.394
L232.255 160.393
L248.704 148.303
L265.169 113.263
L281.618 97.9445
L298.083 74.3368
L314.548 107.824
L330.997 84.5957
L347.462 73.7133
L363.911 109.428
L380.376 128.46
L396.825 113.814
L413.29 166.501
L429.754 167.276
L446.204 182.418
L462.668 212.405
L479.118 179.55
L495.582 196.127
L512.032 186.126
L528.496 205.069" style="fill:none;stroke:#cfdaea;stroke-linecap:square;stroke-width:2;"/>
   </g>
   <g id="line2d_9">
    <path clip-path="url(#p333281e298)" d="
M67.6692 381.745
L84.134 380.246
L100.583 377.64
L117.048 376.477
L133.497 373.838
L149.962 364.348
L166.411 347.936
L182.876 309.975
L199.341 268.509
L215.79 211.563
L232.255 148.023
L248.704 115.905
L265.169 114.287
L281.618 100.388
L298.083 54.2275
L314.548 78.8771
L330.997 83.7101
L347.462 82.595
L363.911 97.619
L380.376 95.9046
L396.825 123.642
L413.29 144.276
L429.754 169.401
L446.204 184.497
L462.668 191.058
L479.118 192.57
L495.582 199.222
L512.032 196.31
L528.496 206.311" style="fill:none;stroke:#cfdaea;stroke-linecap:square;stroke-width:2;"/>
   </g>
   <g id="line2d_10">
    <path clip-path="url(#p333281e298)" d="
M67.6692 382.244
L84.134 381.46
L100.583 380.877
L117.048 374.75
L133.497 373.038
L149.962 360.457
L166.411 350.296
L182.876 312.279
L199.341 271.169
L215.79 258.564
L232.255 155.576
L248.704 118.155
L265.169 141.28
L281.618 112.2
L298.083 80.0071
L314.548 86.3545
L330.997 78.5851
L347.462 80.176
L363.911 80.8914
L380.376 69.7811
L396.825 149.146
L413.29 145.766
L429.754 180.519
L446.204 172.077
L462.668 202.015
L479.118 215.382
L495.582 236.565
L512.032 180.66
L528.496 219.888" style="fill:none;stroke:#cfdaea;stroke-linecap:square;stroke-width:2;"/>
   </g>
   <g id="line2d_11">
    <path clip-path="url(#p333281e298)" d="
M67.6692 382.617
L84.134 381.656
L100.583 378.306
L117.048 377.221
L133.497 370.845
L149.962 362.307
L166.411 346.162
L182.876 308.241
L199.341 288.08
L215.79 266.352
L232.255 171.35
L248.704 178.704
L265.169 130.642
L281.618 111.377
L298.083 87.3785
L314.548 130.454
L330.997 93.8336
L347.462 83.7487
L363.911 125.981
L380.376 160.161
L396.825 127.785
L413.29 198.5
L429.754 168.886
L446.204 189.658
L462.668 228.637
L479.118 190.297
L495.582 216.718
L512.032 188.712
L528.496 207.506" style="fill:none;stroke:#e9d5cb;stroke-linecap:square;stroke-width:2;"/>
   </g>
   <g id="line2d_12">
    <path clip-path="url(#p333281e298)" d="
M67.6692 381.718
L84.134 378.43
L100.583 377.541
L117.048 374.485
L133.497 371.606
L149.962 357.748
L166.411 340.25
L182.876 287.791
L199.341 245.447
L215.79 193.383
L232.255 140.055
L248.704 109.253
L265.169 88.4997
L281.618 88.2699
L298.083 79.093
L314.548 75.7641
L330.997 85.9318
L347.462 102.139
L363.911 84.3226
L380.376 134.026
L396.825 119.799
L413.29 136.869
L429.754 162.446
L446.204 178.748
L462.668 195.487
L479.118 190.365
L495.582 200.313
L512.032 194.983
L528.496 199.43" style="fill:none;stroke:#e9d5cb;stroke-linecap:square;stroke-width:2;"/>
   </g>
   <g id="line2d_13">
    <path clip-path="url(#p333281e298)" d="
M67.6692 382.128
L84.134 378.52
L100.583 376.491
L117.048 374.666
L133.497 370.193
L149.962 358.706
L166.411 339.372
L182.876 284.265
L199.341 239.363
L215.79 230.167
L232.255 133.802
L248.704 101.151
L265.169 114.976
L281.618 103.158
L298.083 84.1051
L314.548 96.9879
L330.997 90.066
L347.462 99.5166
L363.911 99.9523
L380.376 106.045
L396.825 136.886
L413.29 146.297
L429.754 179.819
L446.204 178.296
L462.668 202.177
L479.118 208.821
L495.582 220.165
L512.032 190.537
L528.496 212.854" style="fill:none;stroke:#e9d5cb;stroke-linecap:square;stroke-width:2;"/>
   </g>
   <g id="line2d_14">
    <path clip-path="url(#p333281e298)" d="
M67.6692 381.997
L84.134 378.715
L100.583 376.443
L117.048 372.373
L133.497 369.456
L149.962 353.35
L166.411 336.542
L182.876 276.629
L199.341 230.774
L215.79 195.792
L232.255 155.423
L248.704 135.49
L265.169 85.6549
L281.618 82.341
L298.083 105.064
L314.548 68.775
L330.997 86.4962
L347.462 134.445
L363.911 79.4058
L380.376 174.81
L396.825 125.697
L413.29 145.372
L429.754 159.696
L446.204 185.926
L462.668 196.364
L479.118 180.186
L495.582 198.305
L512.032 197.006
L528.496 190.434" style="fill:none;stroke:#f6bda2;stroke-linecap:square;stroke-width:2;"/>
   </g>
   <g id="line2d_15">
    <path clip-path="url(#p333281e298)" d="
M67.6692 381.752
L84.134 378.845
L100.583 376.21
L117.048 372.689
L133.497 368.783
L149.962 357.434
L166.411 328.41
L182.876 264.516
L199.341 217.209
L215.79 186.051
L232.255 130.843
L248.704 107.309
L265.169 82.2339
L281.618 86.7563
L298.083 79.9032
L314.548 97.0702
L330.997 101.654
L347.462 102.316
L363.911 101.178
L380.376 121.289
L396.825 138.622
L413.29 143.71
L429.754 169.759
L446.204 181.905
L462.668 201.851
L479.118 204.466
L495.582 208.696
L512.032 195.917
L528.496 198.233" style="fill:none;stroke:#f6bda2;stroke-linecap:square;stroke-width:2;"/>
   </g>
   <g id="line2d_16">
    <path clip-path="url(#p333281e298)" d="
M67.6692 381.704
L84.134 379.202
L100.583 376.471
L117.048 372.789
L133.497 371.226
L149.962 355.388
L166.411 330.047
L182.876 260.68
L199.341 232.646
L215.79 205.457
L232.255 111.152
L248.704 74.3745
L265.169 85.4135
L281.618 53.1407
L298.083 97.8961
L314.548 102.5
L330.997 41.4682
L347.462 93.8968
L363.911 89.7464
L380.376 97.2376
L396.825 134.404
L413.29 137.062
L429.754 149.37
L446.204 169.304
L462.668 191.549
L479.118 205.854
L495.582 230.668
L512.032 170.47
L528.496 229.305" style="fill:none;stroke:#f6bda2;stroke-linecap:square;stroke-width:2;"/>
   </g>
   <g id="line2d_17">
    <path clip-path="url(#p333281e298)" d="
M67.6692 381.635
L84.134 379.463
L100.583 376.917
L117.048 370.225
L133.497 366.35
L149.962 351.865
L166.411 325.51
L182.876 269.411
L199.341 211.887
L215.79 146.459
L232.255 151.54
L248.704 139.507
L265.169 82.3587
L281.618 71.0795
L298.083 77.7792
L314.548 75.5484
L330.997 90.7037
L347.462 81.9308
L363.911 95.4345
L380.376 132.187
L396.825 136.743
L413.29 145.775
L429.754 162.689
L446.204 185.424
L462.668 187.575
L479.118 182.516
L495.582 185.824
L512.032 202.015
L528.496 182.019" style="fill:none;stroke:#f4987a;stroke-linecap:square;stroke-width:2;"/>
   </g>
   <g id="line2d_18">
    <path clip-path="url(#p333281e298)" d="
M67.6692 381.61
L84.134 380.436
L100.583 375.897
L117.048 373.401
L133.497 369.877
L149.962 347.053
L166.411 332.663
L182.876 264.595
L199.341 226.508
L215.79 191.847
L232.255 117.063
L248.704 85.8365
L265.169 85.8007
L281.618 83.0841
L298.083 108.584
L314.548 120.658
L330.997 97.8505
L347.462 118.571
L363.911 98.4776
L380.376 124.908
L396.825 153.03
L413.29 156.487
L429.754 167.622
L446.204 184.823
L462.668 201.63
L479.118 210.108
L495.582 219.798
L512.032 192.634
L528.496 229.976" style="fill:none;stroke:#f4987a;stroke-linecap:square;stroke-width:2;"/>
   </g>
   <g id="line2d_19">
    <path clip-path="url(#p333281e298)" d="
M67.6692 379.642
L84.134 378.413
L100.583 375.917
L117.048 369.366
L133.497 366.802
L149.962 354.793
L166.411 326.684
L182.876 297.848
L199.341 216.804
L215.79 114.161
L232.255 172.296
L248.704 172.36
L265.169 57.5613
L281.618 36.9546
L298.083 50.7421
L314.548 29.0987
L330.997 48.5014
L347.462 44.6505
L363.911 41.6447
L380.376 121.529
L396.825 108.371
L413.29 144.658
L429.754 151.266
L446.204 177.915
L462.668 155.547
L479.118 137.949
L495.582 156.235
L512.032 192.029
L528.496 161.693" style="fill:none;stroke:#e36c55;stroke-linecap:square;stroke-width:2;"/>
   </g>
   <g id="line2d_20">
    <path clip-path="url(#p333281e298)" d="
M67.6692 381.708
L84.134 378.998
L100.583 378.295
L117.048 373.052
L133.497 369.712
L149.962 356.979
L166.411 336.45
L182.876 293.437
L199.341 233.309
L215.79 178.335
L232.255 134.908
L248.704 114.926
L265.169 106.929
L281.618 104.074
L298.083 90.0569
L314.548 104.753
L330.997 114.881
L347.462 119.41
L363.911 120.5
L380.376 129.742
L396.825 157.008
L413.29 160.196
L429.754 188.426
L446.204 186.533
L462.668 199.671
L479.118 203.985
L495.582 202.697
L512.032 199.757
L528.496 218.836" style="fill:none;stroke:#e36c55;stroke-linecap:square;stroke-width:2;"/>
   </g>
   <g id="line2d_21">
    <path clip-path="url(#p333281e298)" d="
M67.6692 381.809
L84.134 378.746
L100.583 379.329
L117.048 376.468
L133.497 374.235
L149.962 366.223
L166.411 345.164
L182.876 295.256
L199.341 277.837
L215.79 222.325
L232.255 143.341
L248.704 143.357
L265.169 133.797
L281.618 113.347
L298.083 157.812
L314.548 148.168
L330.997 110.446
L347.462 102.874
L363.911 155.487
L380.376 160.469
L396.825 181.266
L413.29 160.029
L429.754 185.901
L446.204 233.107
L462.668 212.37
L479.118 218.779
L495.582 252.924
L512.032 190.807
L528.496 251.943" style="fill:none;stroke:#e36c55;stroke-linecap:square;stroke-width:2;"/>
   </g>
   <g id="line2d_22">
    <path clip-path="url(#p333281e298)" d="
M67.6692 379.691
L84.134 378.361
L100.583 379.68
L117.048 373.368
L133.497 369.968
L149.962 365.173
L166.411 343.508
L182.876 318.827
L199.341 241.179
L215.79 149.369
L232.255 153.938
L248.704 142.425
L265.169 120.019
L281.618 114.343
L298.083 52.5372
L314.548 56.0216
L330.997 108.818
L347.462 78.7022
L363.911 101.522
L380.376 104.338
L396.825 131.965
L413.29 165.542
L429.754 196.933
L446.204 188.229
L462.668 184.79
L479.118 184.511
L495.582 168.952
L512.032 185.646
L528.496 194.285" style="fill:none;stroke:#c53334;stroke-linecap:square;stroke-width:2;"/>
   </g>
   <g id="line2d_23">
    <path clip-path="url(#p333281e298)" d="
M67.6692 381.526
L84.134 378.302
L100.583 378.846
L117.048 375.201
L133.497 371.365
L149.962 363.607
L166.411 349.925
L182.876 312.451
L199.341 277.52
L215.79 207.185
L232.255 127.469
L248.704 110.393
L265.169 122.362
L281.618 104.414
L298.083 117.956
L314.548 119.374
L330.997 127.67
L347.462 112.311
L363.911 132.438
L380.376 127.073
L396.825 170.308
L413.29 173.514
L429.754 185.444
L446.204 201.861
L462.668 195.849
L479.118 222.382
L495.582 218.45
L512.032 192.457
L528.496 225.268" style="fill:none;stroke:#c53334;stroke-linecap:square;stroke-width:2;"/>
   </g>
   <g id="patch_3">
    <path d="
M51.21 18.81
L544.956 18.81" style="fill:none;stroke:#000000;stroke-linecap:square;stroke-linejoin:miter;"/>
   </g>
   <g id="patch_4">
    <path d="
M544.956 386.64
L544.956 18.81" style="fill:none;stroke:#000000;stroke-linecap:square;stroke-linejoin:miter;"/>
   </g>
   <g id="patch_5">
    <path d="
M51.21 386.64
L544.956 386.64" style="fill:none;stroke:#000000;stroke-linecap:square;stroke-linejoin:miter;"/>
   </g>
   <g id="patch_6">
    <path d="
M51.21 386.64
L51.21 18.81" style="fill:none;stroke:#000000;stroke-linecap:square;stroke-linejoin:miter;"/>
   </g>
   <g id="matplotlib.axis_1">
    <g id="xtick_1">
     <g id="line2d_24">
      <defs>
       <path d="
M0 0
L0 -4" id="m93b0483c22" style="stroke:#000000;stroke-width:0.5;"/>
      </defs>
      <g>
       <use style="stroke:#000000;stroke-width:0.5;" x="51.21" xlink:href="#m93b0483c22" y="386.64"/>
      </g>
     </g>
     <g id="line2d_25">
      <defs>
       <path d="
M0 0
L0 4" id="m741efc42ff" style="stroke:#000000;stroke-width:0.5;"/>
      </defs>
      <g>
       <use style="stroke:#000000;stroke-width:0.5;" x="51.21" xlink:href="#m741efc42ff" y="18.81"/>
      </g>
     </g>
     <g id="text_1">
      <!-- 10360 -->
      <defs>
       <path d="
M12.4062 8.29688
L28.5156 8.29688
L28.5156 63.9219
L10.9844 60.4062
L10.9844 69.3906
L28.4219 72.9062
L38.2812 72.9062
L38.2812 8.29688
L54.3906 8.29688
L54.3906 0
L12.4062 0
z
" id="DejaVuSans-31"/>
       <path d="
M31.7812 66.4062
Q24.1719 66.4062 20.3281 58.9062
Q16.5 51.4219 16.5 36.375
Q16.5 21.3906 20.3281 13.8906
Q24.1719 6.39062 31.7812 6.39062
Q39.4531 6.39062 43.2812 13.8906
Q47.125 21.3906 47.125 36.375
Q47.125 51.4219 43.2812 58.9062
Q39.4531 66.4062 31.7812 66.4062
M31.7812 74.2188
Q44.0469 74.2188 50.5156 64.5156
Q56.9844 54.8281 56.9844 36.375
Q56.9844 17.9688 50.5156 8.26562
Q44.0469 -1.42188 31.7812 -1.42188
Q19.5312 -1.42188 13.0625 8.26562
Q6.59375 17.9688 6.59375 36.375
Q6.59375 54.8281 13.0625 64.5156
Q19.5312 74.2188 31.7812 74.2188" id="DejaVuSans-30"/>
       <path d="
M40.5781 39.3125
Q47.6562 37.7969 51.625 33
Q55.6094 28.2188 55.6094 21.1875
Q55.6094 10.4062 48.1875 4.48438
Q40.7656 -1.42188 27.0938 -1.42188
Q22.5156 -1.42188 17.6562 -0.515625
Q12.7969 0.390625 7.625 2.20312
L7.625 11.7188
Q11.7188 9.32812 16.5938 8.10938
Q21.4844 6.89062 26.8125 6.89062
Q36.0781 6.89062 40.9375 10.5469
Q45.7969 14.2031 45.7969 21.1875
Q45.7969 27.6406 41.2812 31.2656
Q36.7656 34.9062 28.7188 34.9062
L20.2188 34.9062
L20.2188 43.0156
L29.1094 43.0156
Q36.375 43.0156 40.2344 45.9219
Q44.0938 48.8281 44.0938 54.2969
Q44.0938 59.9062 40.1094 62.9062
Q36.1406 65.9219 28.7188 65.9219
Q24.6562 65.9219 20.0156 65.0312
Q15.375 64.1562 9.8125 62.3125
L9.8125 71.0938
Q15.4375 72.6562 20.3438 73.4375
Q25.25 74.2188 29.5938 74.2188
Q40.8281 74.2188 47.3594 69.1094
Q53.9062 64.0156 53.9062 55.3281
Q53.9062 49.2656 50.4375 45.0938
Q46.9688 40.9219 40.5781 39.3125" id="DejaVuSans-33"/>
       <path d="
M33.0156 40.375
Q26.375 40.375 22.4844 35.8281
Q18.6094 31.2969 18.6094 23.3906
Q18.6094 15.5312 22.4844 10.9531
Q26.375 6.39062 33.0156 6.39062
Q39.6562 6.39062 43.5312 10.9531
Q47.4062 15.5312 47.4062 23.3906
Q47.4062 31.2969 43.5312 35.8281
Q39.6562 40.375 33.0156 40.375
M52.5938 71.2969
L52.5938 62.3125
Q48.875 64.0625 45.0938 64.9844
Q41.3125 65.9219 37.5938 65.9219
Q27.8281 65.9219 22.6719 59.3281
Q17.5312 52.7344 16.7969 39.4062
Q19.6719 43.6562 24.0156 45.9219
Q28.375 48.1875 33.5938 48.1875
Q44.5781 48.1875 50.9531 41.5156
Q57.3281 34.8594 57.3281 23.3906
Q57.3281 12.1562 50.6875 5.35938
Q44.0469 -1.42188 33.0156 -1.42188
Q20.3594 -1.42188 13.6719 8.26562
Q6.98438 17.9688 6.98438 36.375
Q6.98438 53.6562 15.1875 63.9375
Q23.3906 74.2188 37.2031 74.2188
Q40.9219 74.2188 44.7031 73.4844
Q48.4844 72.75 52.5938 71.2969" id="DejaVuSans-36"/>
      </defs>
      <g transform="translate(33.18 399.758125)scale(0.12 -0.12)">
       <use xlink:href="#DejaVuSans-31"/>
       <use x="63.623046875" xlink:href="#DejaVuSans-30"/>
       <use x="127.24609375" xlink:href="#DejaVuSans-33"/>
       <use x="190.869140625" xlink:href="#DejaVuSans-36"/>
       <use x="254.4921875" xlink:href="#DejaVuSans-30"/>
      </g>
     </g>
    </g>
    <g id="xtick_2">
     <g id="line2d_26">
      <g>
       <use style="stroke:#000000;stroke-width:0.5;" x="133.5009375" xlink:href="#m93b0483c22" y="386.64"/>
      </g>
     </g>
     <g id="line2d_27">
      <g>
       <use style="stroke:#000000;stroke-width:0.5;" x="133.5009375" xlink:href="#m741efc42ff" y="18.81"/>
      </g>
     </g>
     <g id="text_2">
      <!-- 10365 -->
      <defs>
       <path d="
M10.7969 72.9062
L49.5156 72.9062
L49.5156 64.5938
L19.8281 64.5938
L19.8281 46.7344
Q21.9688 47.4688 24.1094 47.8281
Q26.2656 48.1875 28.4219 48.1875
Q40.625 48.1875 47.75 41.5
Q54.8906 34.8125 54.8906 23.3906
Q54.8906 11.625 47.5625 5.09375
Q40.2344 -1.42188 26.9062 -1.42188
Q22.3125 -1.42188 17.5469 -0.640625
Q12.7969 0.140625 7.71875 1.70312
L7.71875 11.625
Q12.1094 9.23438 16.7969 8.0625
Q21.4844 6.89062 26.7031 6.89062
Q35.1562 6.89062 40.0781 11.3281
Q45.0156 15.7656 45.0156 23.3906
Q45.0156 31 40.0781 35.4375
Q35.1562 39.8906 26.7031 39.8906
Q22.75 39.8906 18.8125 39.0156
Q14.8906 38.1406 10.7969 36.2812
z
" id="DejaVuSans-35"/>
      </defs>
      <g transform="translate(115.5965625 399.758125)scale(0.12 -0.12)">
       <use xlink:href="#DejaVuSans-31"/>
       <use x="63.623046875" xlink:href="#DejaVuSans-30"/>
       <use x="127.24609375" xlink:href="#DejaVuSans-33"/>
       <use x="190.869140625" xlink:href="#DejaVuSans-36"/>
       <use x="254.4921875" xlink:href="#DejaVuSans-35"/>
      </g>
     </g>
    </g>
    <g id="xtick_3">
     <g id="line2d_28">
      <g>
       <use style="stroke:#000000;stroke-width:0.5;" x="215.791875" xlink:href="#m93b0483c22" y="386.64"/>
      </g>
     </g>
     <g id="line2d_29">
      <g>
       <use style="stroke:#000000;stroke-width:0.5;" x="215.791875" xlink:href="#m741efc42ff" y="18.81"/>
      </g>
     </g>
     <g id="text_3">
      <!-- 10370 -->
      <defs>
       <path d="
M8.20312 72.9062
L55.0781 72.9062
L55.0781 68.7031
L28.6094 0
L18.3125 0
L43.2188 64.5938
L8.20312 64.5938
z
" id="DejaVuSans-37"/>
      </defs>
      <g transform="translate(197.761875 399.758125)scale(0.12 -0.12)">
       <use xlink:href="#DejaVuSans-31"/>
       <use x="63.623046875" xlink:href="#DejaVuSans-30"/>
       <use x="127.24609375" xlink:href="#DejaVuSans-33"/>
       <use x="190.869140625" xlink:href="#DejaVuSans-37"/>
       <use x="254.4921875" xlink:href="#DejaVuSans-30"/>
      </g>
     </g>
    </g>
    <g id="xtick_4">
     <g id="line2d_30">
      <g>
       <use style="stroke:#000000;stroke-width:0.5;" x="298.0828125" xlink:href="#m93b0483c22" y="386.64"/>
      </g>
     </g>
     <g id="line2d_31">
      <g>
       <use style="stroke:#000000;stroke-width:0.5;" x="298.0828125" xlink:href="#m741efc42ff" y="18.81"/>
      </g>
     </g>
     <g id="text_4">
      <!-- 10375 -->
      <g transform="translate(280.1784375 399.758125)scale(0.12 -0.12)">
       <use xlink:href="#DejaVuSans-31"/>
       <use x="63.623046875" xlink:href="#DejaVuSans-30"/>
       <use x="127.24609375" xlink:href="#DejaVuSans-33"/>
       <use x="190.869140625" xlink:href="#DejaVuSans-37"/>
       <use x="254.4921875" xlink:href="#DejaVuSans-35"/>
      </g>
     </g>
    </g>
    <g id="xtick_5">
     <g id="line2d_32">
      <g>
       <use style="stroke:#000000;stroke-width:0.5;" x="380.37375" xlink:href="#m93b0483c22" y="386.64"/>
      </g>
     </g>
     <g id="line2d_33">
      <g>
       <use style="stroke:#000000;stroke-width:0.5;" x="380.37375" xlink:href="#m741efc42ff" y="18.81"/>
      </g>
     </g>
     <g id="text_5">
      <!-- 10380 -->
      <defs>
       <path d="
M31.7812 34.625
Q24.75 34.625 20.7188 30.8594
Q16.7031 27.0938 16.7031 20.5156
Q16.7031 13.9219 20.7188 10.1562
Q24.75 6.39062 31.7812 6.39062
Q38.8125 6.39062 42.8594 10.1719
Q46.9219 13.9688 46.9219 20.5156
Q46.9219 27.0938 42.8906 30.8594
Q38.875 34.625 31.7812 34.625
M21.9219 38.8125
Q15.5781 40.375 12.0312 44.7188
Q8.5 49.0781 8.5 55.3281
Q8.5 64.0625 14.7188 69.1406
Q20.9531 74.2188 31.7812 74.2188
Q42.6719 74.2188 48.875 69.1406
Q55.0781 64.0625 55.0781 55.3281
Q55.0781 49.0781 51.5312 44.7188
Q48 40.375 41.7031 38.8125
Q48.8281 37.1562 52.7969 32.3125
Q56.7812 27.4844 56.7812 20.5156
Q56.7812 9.90625 50.3125 4.23438
Q43.8438 -1.42188 31.7812 -1.42188
Q19.7344 -1.42188 13.25 4.23438
Q6.78125 9.90625 6.78125 20.5156
Q6.78125 27.4844 10.7812 32.3125
Q14.7969 37.1562 21.9219 38.8125
M18.3125 54.3906
Q18.3125 48.7344 21.8438 45.5625
Q25.3906 42.3906 31.7812 42.3906
Q38.1406 42.3906 41.7188 45.5625
Q45.3125 48.7344 45.3125 54.3906
Q45.3125 60.0625 41.7188 63.2344
Q38.1406 66.4062 31.7812 66.4062
Q25.3906 66.4062 21.8438 63.2344
Q18.3125 60.0625 18.3125 54.3906" id="DejaVuSans-38"/>
      </defs>
      <g transform="translate(362.34375 399.758125)scale(0.12 -0.12)">
       <use xlink:href="#DejaVuSans-31"/>
       <use x="63.623046875" xlink:href="#DejaVuSans-30"/>
       <use x="127.24609375" xlink:href="#DejaVuSans-33"/>
       <use x="190.869140625" xlink:href="#DejaVuSans-38"/>
       <use x="254.4921875" xlink:href="#DejaVuSans-30"/>
      </g>
     </g>
    </g>
    <g id="xtick_6">
     <g id="line2d_34">
      <g>
       <use style="stroke:#000000;stroke-width:0.5;" x="462.6646875" xlink:href="#m93b0483c22" y="386.64"/>
      </g>
     </g>
     <g id="line2d_35">
      <g>
       <use style="stroke:#000000;stroke-width:0.5;" x="462.6646875" xlink:href="#m741efc42ff" y="18.81"/>
      </g>
     </g>
     <g id="text_6">
      <!-- 10385 -->
      <g transform="translate(444.7603125 399.758125)scale(0.12 -0.12)">
       <use xlink:href="#DejaVuSans-31"/>
       <use x="63.623046875" xlink:href="#DejaVuSans-30"/>
       <use x="127.24609375" xlink:href="#DejaVuSans-33"/>
       <use x="190.869140625" xlink:href="#DejaVuSans-38"/>
       <use x="254.4921875" xlink:href="#DejaVuSans-35"/>
      </g>
     </g>
    </g>
    <g id="xtick_7">
     <g id="line2d_36">
      <g>
       <use style="stroke:#000000;stroke-width:0.5;" x="544.955625" xlink:href="#m93b0483c22" y="386.64"/>
      </g>
     </g>
     <g id="line2d_37">
      <g>
       <use style="stroke:#000000;stroke-width:0.5;" x="544.955625" xlink:href="#m741efc42ff" y="18.81"/>
      </g>
     </g>
     <g id="text_7">
      <!-- 10390 -->
      <defs>
       <path d="
M10.9844 1.51562
L10.9844 10.5
Q14.7031 8.73438 18.5 7.8125
Q22.3125 6.89062 25.9844 6.89062
Q35.75 6.89062 40.8906 13.4531
Q46.0469 20.0156 46.7812 33.4062
Q43.9531 29.2031 39.5938 26.9531
Q35.25 24.7031 29.9844 24.7031
Q19.0469 24.7031 12.6719 31.3125
Q6.29688 37.9375 6.29688 49.4219
Q6.29688 60.6406 12.9375 67.4219
Q19.5781 74.2188 30.6094 74.2188
Q43.2656 74.2188 49.9219 64.5156
Q56.5938 54.8281 56.5938 36.375
Q56.5938 19.1406 48.4062 8.85938
Q40.2344 -1.42188 26.4219 -1.42188
Q22.7031 -1.42188 18.8906 -0.6875
Q15.0938 0.046875 10.9844 1.51562
M30.6094 32.4219
Q37.25 32.4219 41.125 36.9531
Q45.0156 41.5 45.0156 49.4219
Q45.0156 57.2812 41.125 61.8438
Q37.25 66.4062 30.6094 66.4062
Q23.9688 66.4062 20.0938 61.8438
Q16.2188 57.2812 16.2188 49.4219
Q16.2188 41.5 20.0938 36.9531
Q23.9688 32.4219 30.6094 32.4219" id="DejaVuSans-39"/>
      </defs>
      <g transform="translate(526.925625 399.758125)scale(0.12 -0.12)">
       <use xlink:href="#DejaVuSans-31"/>
       <use x="63.623046875" xlink:href="#DejaVuSans-30"/>
       <use x="127.24609375" xlink:href="#DejaVuSans-33"/>
       <use x="190.869140625" xlink:href="#DejaVuSans-39"/>
       <use x="254.4921875" xlink:href="#DejaVuSans-30"/>
      </g>
     </g>
    </g>
    <g id="text_8">
     <!-- energy [eV] -->
     <defs>
      <path d="
M8.59375 75.9844
L29.2969 75.9844
L29.2969 69
L17.5781 69
L17.5781 -6.20312
L29.2969 -6.20312
L29.2969 -13.1875
L8.59375 -13.1875
z
" id="DejaVuSans-5b"/>
      <path d="
M54.8906 33.0156
L54.8906 0
L45.9062 0
L45.9062 32.7188
Q45.9062 40.4844 42.875 44.3281
Q39.8438 48.1875 33.7969 48.1875
Q26.5156 48.1875 22.3125 43.5469
Q18.1094 38.9219 18.1094 30.9062
L18.1094 0
L9.07812 0
L9.07812 54.6875
L18.1094 54.6875
L18.1094 46.1875
Q21.3438 51.125 25.7031 53.5625
Q30.0781 56 35.7969 56
Q45.2188 56 50.0469 50.1719
Q54.8906 44.3438 54.8906 33.0156" id="DejaVuSans-6e"/>
      <path d="
M30.4219 75.9844
L30.4219 -13.1875
L9.71875 -13.1875
L9.71875 -6.20312
L21.3906 -6.20312
L21.3906 69
L9.71875 69
L9.71875 75.9844
z
" id="DejaVuSans-5d"/>
      <path id="DejaVuSans-20"/>
      <path d="
M32.1719 -5.07812
Q28.375 -14.8438 24.75 -17.8125
Q21.1406 -20.7969 15.0938 -20.7969
L7.90625 -20.7969
L7.90625 -13.2812
L13.1875 -13.2812
Q16.8906 -13.2812 18.9375 -11.5156
Q21 -9.76562 23.4844 -3.21875
L25.0938 0.875
L2.98438 54.6875
L12.5 54.6875
L29.5938 11.9219
L46.6875 54.6875
L56.2031 54.6875
z
" id="DejaVuSans-79"/>
      <path d="
M45.4062 27.9844
Q45.4062 37.75 41.375 43.1094
Q37.3594 48.4844 30.0781 48.4844
Q22.8594 48.4844 18.8281 43.1094
Q14.7969 37.75 14.7969 27.9844
Q14.7969 18.2656 18.8281 12.8906
Q22.8594 7.51562 30.0781 7.51562
Q37.3594 7.51562 41.375 12.8906
Q45.4062 18.2656 45.4062 27.9844
M54.3906 6.78125
Q54.3906 -7.17188 48.1875 -13.9844
Q42 -20.7969 29.2031 -20.7969
Q24.4688 -20.7969 20.2656 -20.0938
Q16.0625 -19.3906 12.1094 -17.9219
L12.1094 -9.1875
Q16.0625 -11.3281 19.9219 -12.3438
Q23.7812 -13.375 27.7812 -13.375
Q36.625 -13.375 41.0156 -8.76562
Q45.4062 -4.15625 45.4062 5.17188
L45.4062 9.625
Q42.625 4.78125 38.2812 2.39062
Q33.9375 0 27.875 0
Q17.8281 0 11.6719 7.65625
Q5.51562 15.3281 5.51562 27.9844
Q5.51562 40.6719 11.6719 48.3281
Q17.8281 56 27.875 56
Q33.9375 56 38.2812 53.6094
Q42.625 51.2188 45.4062 46.3906
L45.4062 54.6875
L54.3906 54.6875
z
" id="DejaVuSans-67"/>
      <path d="
M56.2031 29.5938
L56.2031 25.2031
L14.8906 25.2031
Q15.4844 15.9219 20.4844 11.0625
Q25.4844 6.20312 34.4219 6.20312
Q39.5938 6.20312 44.4531 7.46875
Q49.3125 8.73438 54.1094 11.2812
L54.1094 2.78125
Q49.2656 0.734375 44.1875 -0.34375
Q39.1094 -1.42188 33.8906 -1.42188
Q20.7969 -1.42188 13.1562 6.1875
Q5.51562 13.8125 5.51562 26.8125
Q5.51562 40.2344 12.7656 48.1094
Q20.0156 56 32.3281 56
Q43.3594 56 49.7812 48.8906
Q56.2031 41.7969 56.2031 29.5938
M47.2188 32.2344
Q47.125 39.5938 43.0938 43.9844
Q39.0625 48.3906 32.4219 48.3906
Q24.9062 48.3906 20.3906 44.1406
Q15.875 39.8906 15.1875 32.1719
z
" id="DejaVuSans-65"/>
      <path d="
M28.6094 0
L0.78125 72.9062
L11.0781 72.9062
L34.1875 11.5312
L57.3281 72.9062
L67.5781 72.9062
L39.7969 0
z
" id="DejaVuSans-56"/>
      <path d="
M41.1094 46.2969
Q39.5938 47.1719 37.8125 47.5781
Q36.0312 48 33.8906 48
Q26.2656 48 22.1875 43.0469
Q18.1094 38.0938 18.1094 28.8125
L18.1094 0
L9.07812 0
L9.07812 54.6875
L18.1094 54.6875
L18.1094 46.1875
Q20.9531 51.1719 25.4844 53.5781
Q30.0312 56 36.5312 56
Q37.4531 56 38.5781 55.875
Q39.7031 55.7656 41.0625 55.5156
z
" id="DejaVuSans-72"/>
     </defs>
     <g transform="translate(263.3053125 416.371875)scale(0.12 -0.12)">
      <use xlink:href="#DejaVuSans-65"/>
      <use x="61.5234375" xlink:href="#DejaVuSans-6e"/>
      <use x="124.90234375" xlink:href="#DejaVuSans-65"/>
      <use x="186.42578125" xlink:href="#DejaVuSans-72"/>
      <use x="225.7890625" xlink:href="#DejaVuSans-67"/>
      <use x="289.265625" xlink:href="#DejaVuSans-79"/>
      <use x="348.4453125" xlink:href="#DejaVuSans-20"/>
      <use x="380.232421875" xlink:href="#DejaVuSans-5b"/>
      <use x="419.24609375" xlink:href="#DejaVuSans-65"/>
      <use x="480.76953125" xlink:href="#DejaVuSans-56"/>
      <use x="549.177734375" xlink:href="#DejaVuSans-5d"/>
     </g>
    </g>
   </g>
   <g id="matplotlib.axis_2">
    <g id="ytick_1">
     <g id="line2d_38">
      <defs>
       <path d="
M0 0
L4 0" id="m728421d6d4" style="stroke:#000000;stroke-width:0.5;"/>
      </defs>
      <g>
       <use style="stroke:#000000;stroke-width:0.5;" x="51.21" xlink:href="#m728421d6d4" y="386.64"/>
      </g>
     </g>
     <g id="line2d_39">
      <defs>
       <path d="
M0 0
L-4 0" id="mcb0005524f" style="stroke:#000000;stroke-width:0.5;"/>
      </defs>
      <g>
       <use style="stroke:#000000;stroke-width:0.5;" x="544.955625" xlink:href="#mcb0005524f" y="386.64"/>
      </g>
     </g>
     <g id="text_9">
      <!-- 0.0 -->
      <defs>
       <path d="
M10.6875 12.4062
L21 12.4062
L21 0
L10.6875 0
z
" id="DejaVuSans-2e"/>
      </defs>
      <g transform="translate(29.714375 389.95125)scale(0.12 -0.12)">
       <use xlink:href="#DejaVuSans-30"/>
       <use x="63.623046875" xlink:href="#DejaVuSans-2e"/>
       <use x="95.41015625" xlink:href="#DejaVuSans-30"/>
      </g>
     </g>
    </g>
    <g id="ytick_2">
     <g id="line2d_40">
      <g>
       <use style="stroke:#000000;stroke-width:0.5;" x="51.21" xlink:href="#m728421d6d4" y="294.6825"/>
      </g>
     </g>
     <g id="line2d_41">
      <g>
       <use style="stroke:#000000;stroke-width:0.5;" x="544.955625" xlink:href="#mcb0005524f" y="294.6825"/>
      </g>
     </g>
     <g id="text_10">
      <!-- 0.5 -->
      <g transform="translate(29.965625 297.99375)scale(0.12 -0.12)">
       <use xlink:href="#DejaVuSans-30"/>
       <use x="63.623046875" xlink:href="#DejaVuSans-2e"/>
       <use x="95.41015625" xlink:href="#DejaVuSans-35"/>
      </g>
     </g>
    </g>
    <g id="ytick_3">
     <g id="line2d_42">
      <g>
       <use style="stroke:#000000;stroke-width:0.5;" x="51.21" xlink:href="#m728421d6d4" y="202.725"/>
      </g>
     </g>
     <g id="line2d_43">
      <g>
       <use style="stroke:#000000;stroke-width:0.5;" x="544.955625" xlink:href="#mcb0005524f" y="202.725"/>
      </g>
     </g>
     <g id="text_11">
      <!-- 1.0 -->
      <g transform="translate(30.24125 206.03625)scale(0.12 -0.12)">
       <use xlink:href="#DejaVuSans-31"/>
       <use x="63.623046875" xlink:href="#DejaVuSans-2e"/>
       <use x="95.41015625" xlink:href="#DejaVuSans-30"/>
      </g>
     </g>
    </g>
    <g id="ytick_4">
     <g id="line2d_44">
      <g>
       <use style="stroke:#000000;stroke-width:0.5;" x="51.21" xlink:href="#m728421d6d4" y="110.7675"/>
      </g>
     </g>
     <g id="line2d_45">
      <g>
       <use style="stroke:#000000;stroke-width:0.5;" x="544.955625" xlink:href="#mcb0005524f" y="110.7675"/>
      </g>
     </g>
     <g id="text_12">
      <!-- 1.5 -->
      <g transform="translate(30.4925 114.07875)scale(0.12 -0.12)">
       <use xlink:href="#DejaVuSans-31"/>
       <use x="63.623046875" xlink:href="#DejaVuSans-2e"/>
       <use x="95.41015625" xlink:href="#DejaVuSans-35"/>
      </g>
     </g>
    </g>
    <g id="ytick_5">
     <g id="line2d_46">
      <g>
       <use style="stroke:#000000;stroke-width:0.5;" x="51.21" xlink:href="#m728421d6d4" y="18.81"/>
      </g>
     </g>
     <g id="line2d_47">
      <g>
       <use style="stroke:#000000;stroke-width:0.5;" x="544.955625" xlink:href="#mcb0005524f" y="18.81"/>
      </g>
     </g>
     <g id="text_13">
      <!-- 2.0 -->
      <defs>
       <path d="
M19.1875 8.29688
L53.6094 8.29688
L53.6094 0
L7.32812 0
L7.32812 8.29688
Q12.9375 14.1094 22.625 23.8906
Q32.3281 33.6875 34.8125 36.5312
Q39.5469 41.8438 41.4219 45.5312
Q43.3125 49.2188 43.3125 52.7812
Q43.3125 58.5938 39.2344 62.25
Q35.1562 65.9219 28.6094 65.9219
Q23.9688 65.9219 18.8125 64.3125
Q13.6719 62.7031 7.8125 59.4219
L7.8125 69.3906
Q13.7656 71.7812 18.9375 73
Q24.125 74.2188 28.4219 74.2188
Q39.75 74.2188 46.4844 68.5469
Q53.2188 62.8906 53.2188 53.4219
Q53.2188 48.9219 51.5312 44.8906
Q49.8594 40.875 45.4062 35.4062
Q44.1875 33.9844 37.6406 27.2188
Q31.1094 20.4531 19.1875 8.29688" id="DejaVuSans-32"/>
      </defs>
      <g transform="translate(29.8025 22.12125)scale(0.12 -0.12)">
       <use xlink:href="#DejaVuSans-32"/>
       <use x="63.623046875" xlink:href="#DejaVuSans-2e"/>
       <use x="95.41015625" xlink:href="#DejaVuSans-30"/>
      </g>
     </g>
    </g>
    <g id="text_14">
     <!-- standardized XANES signal -->
     <defs>
      <path d="
M9.8125 72.9062
L23.0938 72.9062
L55.4219 11.9219
L55.4219 72.9062
L64.9844 72.9062
L64.9844 0
L51.7031 0
L19.3906 60.9844
L19.3906 0
L9.8125 0
z
" id="DejaVuSans-4e"/>
      <path d="
M5.51562 54.6875
L48.1875 54.6875
L48.1875 46.4844
L14.4062 7.17188
L48.1875 7.17188
L48.1875 0
L4.29688 0
L4.29688 8.20312
L38.0938 47.5156
L5.51562 47.5156
z
" id="DejaVuSans-7a"/>
      <path d="
M9.42188 75.9844
L18.4062 75.9844
L18.4062 0
L9.42188 0
z
" id="DejaVuSans-6c"/>
      <path d="
M9.8125 72.9062
L55.9062 72.9062
L55.9062 64.5938
L19.6719 64.5938
L19.6719 43.0156
L54.3906 43.0156
L54.3906 34.7188
L19.6719 34.7188
L19.6719 8.29688
L56.7812 8.29688
L56.7812 0
L9.8125 0
z
" id="DejaVuSans-45"/>
      <path d="
M6.29688 72.9062
L16.8906 72.9062
L35.0156 45.7969
L53.2188 72.9062
L63.8125 72.9062
L40.375 37.8906
L65.375 0
L54.7812 0
L34.2812 31
L13.625 0
L2.98438 0
L29 38.9219
z
" id="DejaVuSans-58"/>
      <path d="
M34.1875 63.1875
L20.7969 26.9062
L47.6094 26.9062
z

M28.6094 72.9062
L39.7969 72.9062
L67.5781 0
L57.3281 0
L50.6875 18.7031
L17.8281 18.7031
L11.1875 0
L0.78125 0
z
" id="DejaVuSans-41"/>
      <path d="
M9.42188 54.6875
L18.4062 54.6875
L18.4062 0
L9.42188 0
z

M9.42188 75.9844
L18.4062 75.9844
L18.4062 64.5938
L9.42188 64.5938
z
" id="DejaVuSans-69"/>
      <path d="
M53.5156 70.5156
L53.5156 60.8906
Q47.9062 63.5781 42.9219 64.8906
Q37.9375 66.2188 33.2969 66.2188
Q25.25 66.2188 20.875 63.0938
Q16.5 59.9688 16.5 54.2031
Q16.5 49.3594 19.4062 46.8906
Q22.3125 44.4375 30.4219 42.9219
L36.375 41.7031
Q47.4062 39.5938 52.6562 34.2969
Q57.9062 29 57.9062 20.125
Q57.9062 9.51562 50.7969 4.04688
Q43.7031 -1.42188 29.9844 -1.42188
Q24.8125 -1.42188 18.9688 -0.25
Q13.1406 0.921875 6.89062 3.21875
L6.89062 13.375
Q12.8906 10.0156 18.6562 8.29688
Q24.4219 6.59375 29.9844 6.59375
Q38.4219 6.59375 43.0156 9.90625
Q47.6094 13.2344 47.6094 19.3906
Q47.6094 24.75 44.3125 27.7812
Q41.0156 30.8125 33.5 32.3281
L27.4844 33.5
Q16.4531 35.6875 11.5156 40.375
Q6.59375 45.0625 6.59375 53.4219
Q6.59375 63.0938 13.4062 68.6562
Q20.2188 74.2188 32.1719 74.2188
Q37.3125 74.2188 42.625 73.2812
Q47.9531 72.3594 53.5156 70.5156" id="DejaVuSans-53"/>
      <path d="
M18.3125 70.2188
L18.3125 54.6875
L36.8125 54.6875
L36.8125 47.7031
L18.3125 47.7031
L18.3125 18.0156
Q18.3125 11.3281 20.1406 9.42188
Q21.9688 7.51562 27.5938 7.51562
L36.8125 7.51562
L36.8125 0
L27.5938 0
Q17.1875 0 13.2344 3.875
Q9.28125 7.76562 9.28125 18.0156
L9.28125 47.7031
L2.6875 47.7031
L2.6875 54.6875
L9.28125 54.6875
L9.28125 70.2188
z
" id="DejaVuSans-74"/>
      <path d="
M45.4062 46.3906
L45.4062 75.9844
L54.3906 75.9844
L54.3906 0
L45.4062 0
L45.4062 8.20312
Q42.5781 3.32812 38.25 0.953125
Q33.9375 -1.42188 27.875 -1.42188
Q17.9688 -1.42188 11.7344 6.48438
Q5.51562 14.4062 5.51562 27.2969
Q5.51562 40.1875 11.7344 48.0938
Q17.9688 56 27.875 56
Q33.9375 56 38.25 53.625
Q42.5781 51.2656 45.4062 46.3906
M14.7969 27.2969
Q14.7969 17.3906 18.875 11.75
Q22.9531 6.10938 30.0781 6.10938
Q37.2031 6.10938 41.2969 11.75
Q45.4062 17.3906 45.4062 27.2969
Q45.4062 37.2031 41.2969 42.8438
Q37.2031 48.4844 30.0781 48.4844
Q22.9531 48.4844 18.875 42.8438
Q14.7969 37.2031 14.7969 27.2969" id="DejaVuSans-64"/>
      <path d="
M44.2812 53.0781
L44.2812 44.5781
Q40.4844 46.5312 36.375 47.5
Q32.2812 48.4844 27.875 48.4844
Q21.1875 48.4844 17.8438 46.4375
Q14.5 44.3906 14.5 40.2812
Q14.5 37.1562 16.8906 35.375
Q19.2812 33.5938 26.5156 31.9844
L29.5938 31.2969
Q39.1562 29.25 43.1875 25.5156
Q47.2188 21.7812 47.2188 15.0938
Q47.2188 7.46875 41.1875 3.01562
Q35.1562 -1.42188 24.6094 -1.42188
Q20.2188 -1.42188 15.4531 -0.5625
Q10.6875 0.296875 5.42188 2
L5.42188 11.2812
Q10.4062 8.6875 15.2344 7.39062
Q20.0625 6.10938 24.8125 6.10938
Q31.1562 6.10938 34.5625 8.28125
Q37.9844 10.4531 37.9844 14.4062
Q37.9844 18.0625 35.5156 20.0156
Q33.0625 21.9688 24.7031 23.7812
L21.5781 24.5156
Q13.2344 26.2656 9.51562 29.9062
Q5.8125 33.5469 5.8125 39.8906
Q5.8125 47.6094 11.2812 51.7969
Q16.75 56 26.8125 56
Q31.7812 56 36.1719 55.2656
Q40.5781 54.5469 44.2812 53.0781" id="DejaVuSans-73"/>
      <path d="
M34.2812 27.4844
Q23.3906 27.4844 19.1875 25
Q14.9844 22.5156 14.9844 16.5
Q14.9844 11.7188 18.1406 8.90625
Q21.2969 6.10938 26.7031 6.10938
Q34.1875 6.10938 38.7031 11.4062
Q43.2188 16.7031 43.2188 25.4844
L43.2188 27.4844
z

M52.2031 31.2031
L52.2031 0
L43.2188 0
L43.2188 8.29688
Q40.1406 3.32812 35.5469 0.953125
Q30.9531 -1.42188 24.3125 -1.42188
Q15.9219 -1.42188 10.9531 3.29688
Q6 8.01562 6 15.9219
Q6 25.1406 12.1719 29.8281
Q18.3594 34.5156 30.6094 34.5156
L43.2188 34.5156
L43.2188 35.4062
Q43.2188 41.6094 39.1406 45
Q35.0625 48.3906 27.6875 48.3906
Q23 48.3906 18.5469 47.2656
Q14.1094 46.1406 10.0156 43.8906
L10.0156 52.2031
Q14.9375 54.1094 19.5781 55.0469
Q24.2188 56 28.6094 56
Q40.4844 56 46.3438 49.8438
Q52.2031 43.7031 52.2031 31.2031" id="DejaVuSans-61"/>
     </defs>
     <g transform="translate(22.21875 282.958125)rotate(-90.0)scale(0.12 -0.12)">
      <use xlink:href="#DejaVuSans-73"/>
      <use x="52.099609375" xlink:href="#DejaVuSans-74"/>
      <use x="91.30859375" xlink:href="#DejaVuSans-61"/>
      <use x="152.587890625" xlink:href="#DejaVuSans-6e"/>
      <use x="215.966796875" xlink:href="#DejaVuSans-64"/>
      <use x="279.443359375" xlink:href="#DejaVuSans-61"/>
      <use x="340.72265625" xlink:href="#DejaVuSans-72"/>
      <use x="380.0859375" xlink:href="#DejaVuSans-64"/>
      <use x="443.5625" xlink:href="#DejaVuSans-69"/>
      <use x="471.345703125" xlink:href="#DejaVuSans-7a"/>
      <use x="523.8359375" xlink:href="#DejaVuSans-65"/>
      <use x="585.359375" xlink:href="#DejaVuSans-64"/>
      <use x="648.8359375" xlink:href="#DejaVuSans-20"/>
      <use x="680.623046875" xlink:href="#DejaVuSans-58"/>
      <use x="749.12890625" xlink:href="#DejaVuSans-41"/>
      <use x="817.537109375" xlink:href="#DejaVuSans-4e"/>
      <use x="892.341796875" xlink:href="#DejaVuSans-45"/>
      <use x="955.525390625" xlink:href="#DejaVuSans-53"/>
      <use x="1019.00195312" xlink:href="#DejaVuSans-20"/>
      <use x="1050.7890625" xlink:href="#DejaVuSans-73"/>
      <use x="1102.88867188" xlink:href="#DejaVuSans-69"/>
      <use x="1130.671875" xlink:href="#DejaVuSans-67"/>
      <use x="1194.1484375" xlink:href="#DejaVuSans-6e"/>
      <use x="1257.52734375" xlink:href="#DejaVuSans-61"/>
      <use x="1318.80664062" xlink:href="#DejaVuSans-6c"/>
     </g>
    </g>
   </g>
  </g>
 </g>
 <defs>
  <clipPath id="p333281e298">
   <rect height="367.83" width="493.745625" x="51.21" y="18.81"/>
  </clipPath>
 </defs>
</svg>
